<?xml version="1.0" encoding="UTF-8" standalone="no"?>
<!DOCTYPE svg PUBLIC "-//W3C//DTD SVG 1.1//EN" "http://www.w3.org/Graphics/SVG/1.1/DTD/svg11.dtd">
<svg xmlns="http://www.w3.org/2000/svg" version="1.1" viewBox="0.00 0.00 803.00 200.00">
<g stroke-width="2.00" fill="none" stroke-linecap="butt">
<path stroke="#007880" vector-effect="non-scaling-stroke" d="
  M 16.75 96.75
  C 14.05 143.41 45.27 185.06 91.99 192.29
  C 139.93 199.71 184.90 170.54 195.35 122.87
  C 208.63 62.24 160.19 7.28 98.67 12.90
  C 54.39 16.95 19.33 52.13 16.75 96.75"
/>
<path stroke="#007880" vector-effect="non-scaling-stroke" d="
  M 435.75 94.75
  L 435.75 105.73
  Q 435.75 106.20 435.36 106.48
  C 413.46 122.03 386.97 115.10 384.51 85.72
  C 383.02 68.02 387.58 50.37 407.62 47.19
  C 419.46 45.31 430.45 50.11 434.49 62.17
  Q 434.66 62.66 435.17 62.56
  L 453.98 58.96
  A 0.76 0.76 0.0 0 0 454.57 58.01
  Q 447.90 33.75 422.82 30.38
  Q 409.16 28.55 398.55 31.04
  C 366.63 38.53 357.11 74.76 367.34 102.17
  C 381.33 139.63 427.90 137.75 454.58 117.84
  A 2.93 2.92 -18.5 0 0 455.75 115.50
  L 455.75 77.75
  A 0.50 0.50 0.0 0 0 455.25 77.25
  L 413.75 77.25
  Q 413.00 77.25 413.00 78.00
  L 413.00 93.75
  Q 413.00 94.25 413.50 94.25
  L 435.25 94.25
  Q 435.75 94.25 435.75 94.75"
/>
<path stroke="#007880" vector-effect="non-scaling-stroke" d="
  M 245.50 31.93
  A 0.43 0.43 0.0 0 0 245.07 31.50
  L 225.93 31.50
  A 0.43 0.43 0.0 0 0 225.50 31.93
  L 225.50 129.57
  A 0.43 0.43 0.0 0 0 225.93 130.00
  L 245.07 130.00
  A 0.43 0.43 0.0 0 0 245.50 129.57
  L 245.50 31.93"
/>
<path stroke="#007880" vector-effect="non-scaling-stroke" d="
  M 326.09 31.50
  A 0.34 0.34 0.0 0 0 325.75 31.84
  L 325.75 95.78
  A 0.34 0.34 0.0 0 1 325.12 95.95
  L 285.64 31.66
  A 0.34 0.34 0.0 0 0 285.35 31.50
  L 266.34 31.50
  A 0.34 0.34 0.0 0 0 266.00 31.84
  L 266.00 129.66
  A 0.34 0.34 0.0 0 0 266.34 130.00
  L 284.16 130.00
  A 0.34 0.34 0.0 0 0 284.50 129.66
  L 284.50 67.20
  A 0.34 0.34 0.0 0 1 285.13 67.02
  L 324.00 129.84
  A 0.34 0.34 0.0 0 0 324.29 130.00
  L 343.91 130.00
  A 0.34 0.34 0.0 0 0 344.25 129.66
  L 344.25 31.84
  A 0.34 0.34 0.0 0 0 343.91 31.50
  L 326.09 31.50"
/>
<path stroke="#007880" vector-effect="non-scaling-stroke" d="
  M 496.45 113.25
  A 0.45 0.45 0.0 0 1 496.00 112.80
  L 496.00 87.45
  A 0.45 0.45 0.0 0 1 496.45 87.00
  L 544.80 87.00
  A 0.45 0.45 0.0 0 0 545.25 86.55
  L 545.25 70.45
  A 0.45 0.45 0.0 0 0 544.80 70.00
  L 496.45 70.00
  A 0.45 0.45 0.0 0 1 496.00 69.55
  L 496.00 48.95
  A 0.45 0.45 0.0 0 1 496.45 48.50
  L 548.55 48.50
  A 0.45 0.45 0.0 0 0 549.00 48.05
  L 549.00 31.95
  A 0.45 0.45 0.0 0 0 548.55 31.50
  L 476.45 31.50
  A 0.45 0.45 0.0 0 0 476.00 31.95
  L 476.00 129.55
  A 0.45 0.45 0.0 0 0 476.45 130.00
  L 550.55 130.00
  A 0.45 0.45 0.0 0 0 551.00 129.55
  L 551.00 113.70
  A 0.45 0.45 0.0 0 0 550.55 113.25
  L 496.45 113.25"
/>
<path stroke="#007880" vector-effect="non-scaling-stroke" d="
  M 629.09 31.50
  A 0.34 0.34 0.0 0 0 628.75 31.84
  L 628.75 95.79
  A 0.34 0.34 0.0 0 1 628.12 95.96
  L 588.64 31.66
  A 0.34 0.34 0.0 0 0 588.35 31.50
  L 569.34 31.50
  A 0.34 0.34 0.0 0 0 569.00 31.84
  L 569.00 129.66
  A 0.34 0.34 0.0 0 0 569.34 130.00
  L 587.16 130.00
  A 0.34 0.34 0.0 0 0 587.50 129.66
  L 587.50 67.20
  A 0.34 0.34 0.0 0 1 588.13 67.02
  L 626.99 129.84
  A 0.34 0.34 0.0 0 0 627.28 130.00
  L 646.91 130.00
  A 0.34 0.34 0.0 0 0 647.25 129.66
  L 647.25 31.84
  A 0.34 0.34 0.0 0 0 646.91 31.50
  L 629.09 31.50"
/>
<path stroke="#007880" vector-effect="non-scaling-stroke" d="
  M 689.50 31.93
  A 0.43 0.43 0.0 0 0 689.07 31.50
  L 669.93 31.50
  A 0.43 0.43 0.0 0 0 669.50 31.93
  L 669.50 129.57
  A 0.43 0.43 0.0 0 0 669.93 130.00
  L 689.07 130.00
  A 0.43 0.43 0.0 0 0 689.50 129.57
  L 689.50 31.93"
/>
<path stroke="#007880" vector-effect="non-scaling-stroke" d="
  M 768.34 107.75
  A 0.43 0.43 0.0 0 1 768.75 108.03
  L 776.98 129.72
  A 0.43 0.43 0.0 0 0 777.39 130.00
  L 798.26 130.00
  A 0.43 0.43 0.0 0 0 798.66 129.41
  L 759.58 31.77
  A 0.43 0.43 0.0 0 0 759.18 31.50
  L 738.49 31.50
  A 0.43 0.43 0.0 0 0 738.09 31.77
  L 700.10 129.41
  A 0.43 0.43 0.0 0 0 700.50 130.00
  L 720.94 130.00
  A 0.43 0.43 0.0 0 0 721.34 129.72
  L 729.26 108.03
  A 0.43 0.43 0.0 0 1 729.66 107.75
  L 768.34 107.75"
/>
<path stroke="#007880" vector-effect="non-scaling-stroke" d="
  M 266.43 148.93
  L 266.72 146.33
  A 0.93 0.92 4.1 0 1 267.66 145.52
  L 270.39 145.60
  A 0.49 0.48 6.3 0 0 270.88 145.22
  L 271.38 142.88
  Q 271.49 142.35 270.99 142.15
  Q 265.69 140.06 261.82 143.93
  A 0.63 0.61 -20.7 0 0 261.64 144.31
  L 261.13 149.18
  Q 261.09 149.53 260.74 149.53
  L 259.01 149.49
  Q 258.50 149.48 258.50 149.99
  L 258.50 153.00
  Q 258.50 153.50 259.00 153.50
  L 260.75 153.50
  Q 261.25 153.50 261.25 154.00
  L 261.25 168.37
  Q 261.25 169.00 261.87 169.00
  L 265.75 169.00
  Q 266.50 169.00 266.50 168.25
  L 266.50 154.00
  Q 266.50 153.50 267.00 153.50
  L 269.50 153.50
  Q 270.25 153.50 270.25 152.75
  L 270.25 150.12
  Q 270.25 149.50 269.62 149.50
  L 266.94 149.50
  Q 266.36 149.50 266.43 148.93"
/>
<path stroke="#007880" vector-effect="non-scaling-stroke" d="
  M 706.25 159.50
  L 706.25 161.96
  Q 706.25 162.47 705.82 162.74
  C 689.91 172.85 686.84 142.82 702.18 146.63
  C 704.00 147.09 705.07 148.58 705.89 150.14
  A 0.86 0.86 0.0 0 0 706.80 150.59
  L 710.84 149.87
  Q 711.48 149.76 711.30 149.14
  Q 709.72 143.51 704.59 142.16
  C 692.62 139.00 684.33 148.44 687.35 159.68
  C 690.39 171.03 703.18 171.91 711.38 165.50
  Q 711.75 165.21 711.75 164.74
  L 711.75 155.00
  Q 711.75 154.50 711.25 154.50
  L 700.75 154.50
  Q 700.00 154.50 700.00 155.25
  L 700.00 158.50
  Q 700.00 159.00 700.50 159.00
  L 705.75 159.00
  Q 706.25 159.00 706.25 159.50"
/>
<path stroke="#007880" vector-effect="non-scaling-stroke" d="
  M 231.00 142.71
  A 0.70 0.70 0.0 0 0 230.30 142.01
  L 226.20 142.01
  A 0.70 0.70 0.0 0 0 225.50 142.71
  L 225.50 168.31
  A 0.70 0.70 0.0 0 0 226.20 169.01
  L 230.30 169.01
  A 0.70 0.70 0.0 0 0 231.00 168.31
  L 231.00 142.71"
/>
<path stroke="#007880" vector-effect="non-scaling-stroke" d="
  M 385.9926 142.5725
  A 0.60 0.60 0.0 0 0 385.3863 141.9789
  L 381.3265 142.0214
  A 0.60 0.60 0.0 0 0 380.7329 142.6276
  L 380.7674 145.9275
  A 0.60 0.60 0.0 0 0 381.3737 146.5211
  L 385.4335 146.4786
  A 0.60 0.60 0.0 0 0 386.0271 145.8724
  L 385.9926 142.5725"
/>
<path stroke="#007880" vector-effect="non-scaling-stroke" d="
  M 521.00 150.99
  L 521.00 142.62
  Q 521.00 142.00 520.37 142.00
  L 516.38 142.00
  Q 515.75 142.00 515.75 142.63
  L 515.75 168.25
  Q 515.75 169.00 516.50 169.00
  L 520.48 169.00
  Q 520.98 169.00 520.98 168.50
  C 520.97 165.02 519.55 154.06 524.25 153.04
  C 530.20 151.76 528.26 164.93 528.24 168.46
  Q 528.24 169.00 528.78 169.00
  L 532.78 169.00
  A 0.72 0.72 0.0 0 0 533.50 168.28
  C 533.51 163.80 534.38 155.23 532.39 151.73
  C 530.11 147.70 524.91 148.80 521.49 151.24
  Q 521.00 151.59 521.00 150.99"
/>
<path stroke="#007880" vector-effect="non-scaling-stroke" d="
  M 592.01 142.52
  A 0.52 0.52 0.0 0 0 591.49 142.00
  L 587.27 142.00
  A 0.52 0.52 0.0 0 0 586.75 142.52
  L 586.75 168.48
  A 0.52 0.52 0.0 0 0 587.27 169.00
  L 591.49 169.00
  A 0.52 0.52 0.0 0 0 592.01 168.48
  L 592.01 142.52"
/>
<path stroke="#007880" vector-effect="non-scaling-stroke" d="
  M 648.9872 142.4217
  A 0.43 0.43 0.0 0 0 648.5542 141.9947
  L 644.1543 142.0254
  A 0.43 0.43 0.0 0 0 643.7274 142.4584
  L 643.7528 146.0983
  A 0.43 0.43 0.0 0 0 644.1858 146.5253
  L 648.5857 146.4946
  A 0.43 0.43 0.0 0 0 649.0126 146.0616
  L 648.9872 142.4217"
/>
<path stroke="#007880" vector-effect="non-scaling-stroke" d="
  M 755.79 166.69
  C 767.20 178.06 775.35 154.27 765.18 149.84
  Q 760.32 147.73 756.78 151.09
  A 0.46 0.46 0.0 0 1 756.00 150.75
  L 756.00 142.75
  Q 756.00 142.00 755.25 142.00
  L 751.50 142.00
  Q 750.75 142.00 750.75 142.75
  L 750.75 168.25
  Q 750.75 169.00 751.50 169.00
  L 754.85 169.00
  A 0.70 0.69 82.8 0 0 755.52 168.13
  L 755.24 167.00
  A 0.33 0.33 0.0 0 1 755.79 166.69"
/>
<path stroke="#007880" vector-effect="non-scaling-stroke" d="
  M 780.61 152.50
  A 0.36 0.36 0.0 0 1 780.25 152.14
  L 780.25 142.36
  A 0.36 0.36 0.0 0 0 779.89 142.00
  L 775.11 142.00
  A 0.36 0.36 0.0 0 0 774.75 142.36
  L 774.75 168.64
  A 0.36 0.36 0.0 0 0 775.11 169.00
  L 779.89 169.00
  A 0.36 0.36 0.0 0 0 780.25 168.64
  L 780.25 157.36
  A 0.36 0.36 0.0 0 1 780.61 157.00
  L 790.64 157.00
  A 0.36 0.36 0.0 0 1 791.00 157.36
  L 791.00 168.64
  A 0.36 0.36 0.0 0 0 791.36 169.00
  L 796.14 169.00
  A 0.36 0.36 0.0 0 0 796.50 168.64
  L 796.50 142.36
  A 0.36 0.36 0.0 0 0 796.14 142.00
  L 791.36 142.00
  A 0.36 0.36 0.0 0 0 791.00 142.36
  L 791.00 152.14
  A 0.36 0.36 0.0 0 1 790.64 152.50
  L 780.61 152.50"
/>
<path stroke="#007880" vector-effect="non-scaling-stroke" d="
  M 373.25 149.00
  L 373.25 143.49
  Q 373.25 142.79 372.64 143.14
  L 368.50 145.50
  Q 368.00 145.78 368.00 146.35
  L 368.00 149.07
  Q 368.00 149.71 367.37 149.63
  L 366.06 149.46
  Q 365.50 149.39 365.50 149.95
  L 365.50 153.00
  Q 365.50 153.50 366.00 153.50
  L 367.50 153.50
  Q 368.05 153.50 368.04 154.05
  C 367.84 160.76 365.24 171.73 376.76 169.00
  Q 377.29 168.87 377.23 168.33
  L 376.91 165.54
  A 0.45 0.45 0.0 0 0 376.25 165.19
  Q 374.91 165.91 373.73 165.15
  A 1.05 1.05 0.0 0 1 373.25 164.27
  L 373.25 154.00
  Q 373.25 153.50 373.75 153.50
  L 376.38 153.50
  Q 376.93 153.50 376.95 152.95
  L 377.02 150.15
  Q 377.04 149.50 376.39 149.50
  L 373.75 149.50
  Q 373.25 149.50 373.25 149.00"
/>
<path stroke="#007880" vector-effect="non-scaling-stroke" d="
  M 465.25 149.00
  L 465.25 143.49
  Q 465.25 142.81 464.66 143.15
  L 460.46 145.56
  A 0.91 0.91 0.0 0 0 460.00 146.35
  L 460.00 148.87
  A 0.66 0.66 0.0 0 1 459.31 149.53
  L 458.01 149.49
  Q 457.50 149.47 457.50 149.99
  L 457.50 152.75
  Q 457.50 153.50 458.25 153.50
  L 459.48 153.50
  Q 459.97 153.50 459.97 153.99
  C 459.97 160.55 457.19 171.82 468.75 168.96
  Q 469.30 168.82 469.23 168.25
  L 468.88 165.44
  Q 468.80 164.77 468.22 165.13
  C 466.32 166.29 465.24 165.19 465.24 163.24
  Q 465.24 158.64 465.25 154.01
  Q 465.26 153.50 465.76 153.50
  L 468.31 153.50
  Q 468.87 153.50 468.89 152.95
  L 469.04 150.16
  Q 469.07 149.50 468.41 149.50
  L 465.75 149.50
  Q 465.25 149.50 465.25 149.00"
/>
<path stroke="#007880" vector-effect="non-scaling-stroke" d="
  M 241.27 151.48
  L 241.55 150.08
  Q 241.66 149.50 241.07 149.50
  L 237.25 149.50
  Q 236.75 149.50 236.75 150.00
  L 236.75 168.50
  Q 236.75 169.00 237.25 169.00
  L 241.49 169.00
  Q 242.00 169.00 242.00 168.49
  C 241.99 165.30 241.04 155.56 243.88 153.66
  C 251.23 148.77 249.25 166.09 249.24 168.44
  Q 249.24 169.00 249.80 169.00
  L 253.80 169.00
  Q 254.47 169.00 254.48 168.33
  Q 254.55 162.12 254.47 155.92
  C 254.37 148.09 246.47 147.22 241.90 151.81
  A 0.37 0.37 0.0 0 1 241.27 151.48"
/>
<path stroke="#007880" vector-effect="non-scaling-stroke" d="
  M 292.83 159.24
  A 10.24 10.24 0.0 0 0 282.59 149.00
  A 10.24 10.24 0.0 0 0 272.35 159.24
  A 10.24 10.24 0.0 0 0 282.59 169.48
  A 10.24 10.24 0.0 0 0 292.83 159.24"
/>
<path stroke="#007880" vector-effect="non-scaling-stroke" d="
  M 301.24 151.24
  L 301.53 150.09
  A 0.47 0.47 0.0 0 0 301.07 149.50
  L 297.25 149.50
  Q 296.75 149.50 296.75 150.00
  L 296.75 168.50
  Q 296.75 169.00 297.25 169.00
  L 301.50 169.00
  A 0.60 0.60 0.0 0 0 302.10 168.35
  C 301.90 165.76 300.47 150.46 307.27 154.31
  Q 307.83 154.62 308.01 154.01
  L 309.05 150.55
  Q 309.22 150.00 308.70 149.75
  Q 304.48 147.72 301.98 151.56
  A 0.41 0.41 0.0 0 1 301.24 151.24"
/>
<path stroke="#007880" vector-effect="non-scaling-stroke" d="
  M 316.00 151.23
  L 316.00 150.12
  Q 316.00 149.50 315.37 149.50
  L 311.75 149.50
  Q 311.25 149.50 311.25 150.00
  L 311.25 168.25
  Q 311.25 169.00 312.00 169.00
  L 316.00 169.00
  Q 316.55 169.00 316.53 168.45
  Q 316.38 162.81 316.63 157.19
  C 316.86 152.18 323.18 151.33 323.06 156.27
  Q 322.93 162.34 323.03 168.51
  A 0.49 0.49 0.0 0 0 323.52 169.00
  L 327.75 169.00
  Q 328.27 169.00 328.27 168.47
  Q 328.19 159.49 328.32 157.08
  C 328.57 152.52 334.72 151.12 334.71 156.26
  Q 334.69 162.34 334.79 168.49
  Q 334.79 169.00 335.30 169.00
  L 339.31 169.00
  Q 339.90 169.00 339.92 168.41
  Q 340.21 157.50 339.95 154.56
  C 339.38 148.22 332.39 147.74 328.19 151.48
  Q 327.75 151.88 327.32 151.47
  Q 322.03 146.52 316.61 151.49
  Q 316.00 152.05 316.00 151.23"
/>
<path stroke="#007880" vector-effect="non-scaling-stroke" d="
  M 356.24 167.06
  A 0.48 0.48 0.0 0 1 357.06 167.28
  L 357.34 168.46
  Q 357.47 169.00 358.03 169.00
  L 361.76 169.00
  Q 362.31 169.00 362.21 168.46
  Q 361.00 161.54 361.58 154.50
  C 362.13 147.82 346.70 146.57 345.32 154.22
  Q 345.23 154.73 345.74 154.82
  L 349.25 155.43
  Q 349.71 155.51 349.91 155.08
  C 351.36 151.92 356.94 152.30 356.17 155.98
  Q 356.07 156.46 355.60 156.57
  C 351.53 157.53 344.58 157.80 344.30 163.49
  C 343.98 169.98 352.47 171.08 356.24 167.06"
/>
<path stroke="#007880" vector-effect="non-scaling-stroke" d="
  M 410.84 159.25
  A 10.25 10.25 0.0 0 0 400.59 149.00
  A 10.25 10.25 0.0 0 0 390.34 159.25
  A 10.25 10.25 0.0 0 0 400.59 169.50
  A 10.25 10.25 0.0 0 0 410.84 159.25"
/>
<path stroke="#007880" vector-effect="non-scaling-stroke" d="
  M 419.22 151.46
  L 419.52 150.07
  Q 419.65 149.50 419.07 149.50
  L 415.25 149.50
  Q 414.75 149.50 414.75 150.00
  L 414.75 168.50
  Q 414.75 169.00 415.25 169.00
  L 419.49 169.00
  Q 420.00 169.00 420.00 168.49
  Q 419.99 163.28 420.03 158.09
  C 420.06 153.96 423.54 151.09 426.87 154.41
  A 1.07 1.05 22.8 0 1 427.17 155.12
  L 427.29 168.52
  Q 427.29 169.00 427.77 169.00
  L 431.93 169.00
  Q 432.52 169.00 432.51 168.42
  C 432.46 162.58 435.43 146.03 423.49 149.44
  C 422.03 149.86 421.02 150.94 419.72 151.81
  Q 419.04 152.26 419.22 151.46"
/>
<path stroke="#007880" vector-effect="non-scaling-stroke" d="
  M 438.44 152.19
  C 434.27 159.34 444.66 161.42 449.01 162.22
  A 1.48 1.48 0.0 0 1 449.40 165.00
  Q 444.74 167.33 441.97 163.27
  Q 441.65 162.79 441.08 162.88
  L 437.31 163.45
  Q 436.78 163.54 436.97 164.04
  C 438.89 169.27 444.98 170.23 449.77 169.11
  C 455.46 167.77 457.93 160.43 451.15 157.95
  Q 447.09 156.47 443.08 155.61
  A 1.20 1.20 0.0 0 1 442.80 153.36
  Q 446.79 151.39 449.20 154.70
  Q 449.53 155.16 450.09 155.09
  L 453.74 154.60
  Q 454.31 154.52 454.16 153.97
  C 452.55 147.90 441.32 147.25 438.44 152.19"
/>
<path stroke="#007880" vector-effect="non-scaling-stroke" d="
  M 477.01 160.75
  L 489.19 160.75
  Q 489.68 160.75 489.69 160.26
  Q 489.74 148.84 479.42 149.18
  C 469.48 149.50 468.16 166.71 477.91 169.09
  Q 485.78 171.01 489.25 164.13
  Q 489.51 163.62 488.95 163.53
  L 484.74 162.81
  Q 484.25 162.72 484.06 163.19
  C 482.25 167.60 476.75 165.29 476.56 161.22
  Q 476.54 160.75 477.01 160.75"
/>
<path stroke="#007880" vector-effect="non-scaling-stroke" d="
  M 511.36 154.73
  C 506.89 143.43 490.74 149.57 493.87 162.34
  C 496.11 171.47 508.34 172.15 511.59 163.30
  A 0.70 0.69 14.6 0 0 511.04 162.37
  L 507.11 161.80
  Q 506.51 161.72 506.36 162.30
  L 505.98 163.77
  Q 505.87 164.20 505.52 164.47
  C 498.53 169.79 496.63 155.26 501.05 153.32
  Q 504.65 151.75 506.16 155.47
  A 0.67 0.67 0.0 0 0 506.87 155.89
  L 510.97 155.38
  A 0.48 0.48 0.0 0 0 511.36 154.73"
/>
<path stroke="#007880" vector-effect="non-scaling-stroke" d="
  M 544.21 151.50
  L 544.52 150.07
  Q 544.65 149.50 544.07 149.50
  L 540.25 149.50
  Q 539.75 149.50 539.75 150.00
  L 539.75 168.50
  Q 539.75 169.00 540.25 169.00
  L 544.50 169.00
  Q 545.02 169.00 545.02 168.47
  Q 544.94 159.76 545.07 157.32
  C 545.35 152.44 551.96 151.29 552.19 156.08
  Q 552.34 159.11 552.22 168.42
  Q 552.21 169.00 552.79 169.00
  L 556.81 169.00
  Q 557.49 169.00 557.49 168.32
  C 557.52 163.08 558.15 156.93 556.70 151.91
  Q 556.54 151.36 556.08 151.02
  Q 550.09 146.63 544.86 151.85
  A 0.39 0.38 -16.5 0 1 544.21 151.50"
/>
<path stroke="#007880" vector-effect="non-scaling-stroke" d="
  M 581.84 159.24
  A 10.25 10.25 0.0 0 0 571.59 148.99
  A 10.25 10.25 0.0 0 0 561.34 159.24
  A 10.25 10.25 0.0 0 0 571.59 169.49
  A 10.25 10.25 0.0 0 0 581.84 159.24"
/>
<path stroke="#007880" vector-effect="non-scaling-stroke" d="
  M 615.84 159.24
  A 10.25 10.25 0.0 0 0 605.59 148.99
  A 10.25 10.25 0.0 0 0 595.34 159.24
  A 10.25 10.25 0.0 0 0 605.59 169.49
  A 10.25 10.25 0.0 0 0 615.84 159.24"
/>
<path stroke="#007880" vector-effect="non-scaling-stroke" d="
  M 633.03 167.17
  C 634.62 172.51 628.78 175.32 626.24 171.37
  Q 625.95 170.92 625.43 170.87
  L 620.82 170.43
  Q 620.31 170.38 620.33 170.89
  C 620.53 178.34 633.31 178.72 636.85 174.16
  C 639.78 170.37 638.52 155.17 638.46 149.98
  Q 638.46 149.50 637.98 149.50
  L 634.38 149.50
  Q 633.75 149.50 633.75 150.13
  L 633.75 151.23
  Q 633.75 151.96 633.21 151.47
  C 628.08 146.89 622.11 148.97 620.08 155.15
  C 617.65 162.59 623.83 174.03 632.55 167.02
  Q 632.90 166.74 633.03 167.17"
/>
<path stroke="#007880" vector-effect="non-scaling-stroke" d="
  M 659.01 160.75
  L 671.02 160.75
  A 0.60 0.60 0.0 0 0 671.62 160.20
  C 672.68 149.15 658.35 144.31 654.26 154.26
  C 648.55 168.20 666.80 175.48 671.12 164.14
  Q 671.33 163.58 670.74 163.48
  L 666.76 162.77
  Q 666.26 162.69 666.07 163.15
  C 664.27 167.61 658.75 165.30 658.56 161.22
  Q 658.54 160.75 659.01 160.75"
/>
<path stroke="#007880" vector-effect="non-scaling-stroke" d="
  M 722.00 151.23
  L 722.00 150.12
  Q 722.00 149.50 721.38 149.50
  L 717.75 149.50
  Q 717.25 149.50 717.25 150.00
  L 717.25 168.25
  Q 717.25 169.00 718.00 169.00
  L 722.00 169.00
  Q 722.55 169.00 722.53 168.45
  C 722.45 165.41 721.80 156.86 723.32 154.47
  C 724.81 152.15 729.03 152.72 729.01 155.50
  Q 728.97 161.98 729.01 168.50
  Q 729.02 169.00 729.52 169.00
  L 733.73 169.00
  Q 734.22 169.00 734.22 168.51
  Q 734.23 162.90 734.46 157.33
  C 734.59 154.00 737.48 151.23 740.34 154.20
  A 1.28 1.23 -68.4 0 1 740.69 155.05
  L 740.78 168.52
  Q 740.78 169.00 741.27 169.00
  L 745.48 169.00
  Q 745.98 169.00 745.98 168.50
  C 746.02 164.47 746.91 154.98 744.96 151.76
  C 742.61 147.86 737.57 148.47 734.19 151.49
  Q 733.75 151.89 733.31 151.48
  Q 728.03 146.49 722.61 151.49
  Q 722.00 152.06 722.00 151.23"
/>
<path stroke="#007880" vector-effect="non-scaling-stroke" d="
  M 385.99 149.81
  A 0.31 0.31 0.0 0 0 385.68 149.50
  L 381.06 149.50
  A 0.31 0.31 0.0 0 0 380.75 149.81
  L 380.75 168.69
  A 0.31 0.31 0.0 0 0 381.06 169.00
  L 385.68 169.00
  A 0.31 0.31 0.0 0 0 385.99 168.69
  L 385.99 149.81"
/>
<path stroke="#007880" vector-effect="non-scaling-stroke" d="
  M 648.99 149.81
  A 0.31 0.31 0.0 0 0 648.68 149.50
  L 644.06 149.50
  A 0.31 0.31 0.0 0 0 643.75 149.81
  L 643.75 168.69
  A 0.31 0.31 0.0 0 0 644.06 169.00
  L 648.68 169.00
  A 0.31 0.31 0.0 0 0 648.99 168.69
  L 648.99 149.81"
/>
<path stroke="#007880" vector-effect="non-scaling-stroke" d="
  M 187.83 89.16
  C 181.22 55.67 158.54 31.59 125.46 23.13
  A 0.37 0.37 0.0 0 0 125.00 23.49
  L 125.00 173.02
  A 1.42 1.42 0.0 0 0 127.55 173.87
  L 187.42 94.16
  A 1.73 1.60 -23.3 0 0 187.73 93.46
  C 188.02 92.02 188.12 90.62 187.83 89.16"
/>
<path stroke="#007880" vector-effect="non-scaling-stroke" d="
  M 84.52 25.00
  Q 84.91 24.84 85.00 24.53
  A 0.22 0.22 0.0 0 0 84.72 24.27
  C 54.56 33.17 35.18 54.63 27.05 84.70
  Q 26.50 86.75 27.95 85.20
  L 84.13 25.28
  Q 84.30 25.10 84.52 25.00"
/>
<path stroke="#007880" vector-effect="non-scaling-stroke" d="
  M 24.65 103.76
  C 26.12 142.82 51.77 174.34 90.02 183.21
  A 0.80 0.80 0.0 0 0 91.00 182.43
  L 91.00 29.55
  A 0.40 0.40 0.0 0 0 90.31 29.28
  Q 61.78 59.77 33.06 90.46
  C 28.92 94.89 24.39 96.76 24.65 103.76"
/>
<path stroke="#007880" vector-effect="non-scaling-stroke" d="
  M 187.85 105.63
  L 131.89 180.15
  A 0.43 0.43 0.0 0 0 132.37 180.81
  C 164.74 169.80 184.92 143.50 188.84 109.67
  Q 189.08 107.52 188.99 105.97
  Q 188.88 104.25 187.85 105.63"
/>
<path stroke="#007880" vector-effect="non-scaling-stroke" d="
  M 735.72 90.37
  A 0.33 0.33 0.0 0 0 736.03 90.81
  L 761.68 90.68
  A 0.33 0.33 0.0 0 0 761.98 90.23
  L 748.98 55.77
  A 0.33 0.33 0.0 0 0 748.36 55.77
  L 735.72 90.37"
/>
<path stroke="#007880" vector-effect="non-scaling-stroke" d="
  M 760.4024 165.5486
  A 6.32 4.33 88.8 0 0 764.5991 159.1393
  A 6.32 4.33 88.8 0 0 760.1376 152.9114
  A 6.32 4.33 88.8 0 0 755.9409 159.3207
  A 6.32 4.33 88.8 0 0 760.4024 165.5486"
/>
<path stroke="#007880" vector-effect="non-scaling-stroke" d="
  M 282.5200 165.5000
  A 6.26 4.82 90.0 0 0 287.3400 159.2400
  A 6.26 4.82 90.0 0 0 282.5200 152.9800
  A 6.26 4.82 90.0 0 0 277.7000 159.2400
  A 6.26 4.82 90.0 0 0 282.5200 165.5000"
/>
<path stroke="#007880" vector-effect="non-scaling-stroke" d="
  M 355.03 160.01
  L 349.89 161.86
  A 0.88 0.88 0.0 0 0 349.36 162.98
  L 349.41 163.12
  A 3.47 3.44 70.2 0 0 353.82 165.22
  L 354.14 165.11
  A 3.47 3.44 70.2 0 0 356.20 160.68
  L 356.15 160.54
  A 0.88 0.88 0.0 0 0 355.03 160.01"
/>
<path stroke="#007880" vector-effect="non-scaling-stroke" d="
  M 400.5100 165.5000
  A 6.25 4.82 90.0 0 0 405.3300 159.2500
  A 6.25 4.82 90.0 0 0 400.5100 153.0000
  A 6.25 4.82 90.0 0 0 395.6900 159.2500
  A 6.25 4.82 90.0 0 0 400.5100 165.5000"
/>
<path stroke="#007880" vector-effect="non-scaling-stroke" d="
  M 477.05 157.51
  L 483.97 157.49
  A 0.43 0.43 0.0 0 0 484.40 157.06
  L 484.40 156.91
  A 3.84 3.83 89.9 0 0 480.57 153.08
  L 480.45 153.08
  A 3.84 3.83 89.9 0 0 476.62 156.93
  L 476.62 157.08
  A 0.43 0.43 0.0 0 0 477.05 157.51"
/>
<path stroke="#007880" vector-effect="non-scaling-stroke" d="
  M 571.4783 165.4800
  A 6.23 4.80 90.2 0 0 576.3000 159.2668
  A 6.23 4.80 90.2 0 0 571.5217 153.0200
  A 6.23 4.80 90.2 0 0 566.7000 159.2332
  A 6.23 4.80 90.2 0 0 571.4783 165.4800"
/>
<path stroke="#007880" vector-effect="non-scaling-stroke" d="
  M 605.5217 165.4900
  A 6.23 4.80 89.8 0 0 610.3000 159.2432
  A 6.23 4.80 89.8 0 0 605.4783 153.0300
  A 6.23 4.80 89.8 0 0 600.7000 159.2768
  A 6.23 4.80 89.8 0 0 605.5217 165.4900"
/>
<path stroke="#007880" vector-effect="non-scaling-stroke" d="
  M 628.9490 165.0000
  A 6.02 4.32 90.2 0 0 633.2900 158.9951
  A 6.02 4.32 90.2 0 0 628.9910 152.9600
  A 6.02 4.32 90.2 0 0 624.6500 158.9649
  A 6.02 4.32 90.2 0 0 628.9490 165.0000"
/>
<path stroke="#007880" vector-effect="non-scaling-stroke" d="
  M 659.06 157.50
  L 665.98 157.50
  A 0.43 0.43 0.0 0 0 666.41 157.07
  L 666.41 156.94
  A 3.84 3.82 -90.0 0 0 662.59 153.10
  L 662.45 153.10
  A 3.84 3.82 90.0 0 0 658.63 156.94
  L 658.63 157.07
  A 0.43 0.43 0.0 0 0 659.06 157.50"
/>
</g>
<path fill="#ffffff" d="
  M 0.00 0.00
  L 803.00 0.00
  L 803.00 200.00
  L 0.00 200.00
  L 0.00 0.00
  Z
  M 16.75 96.75
  C 14.05 143.41 45.27 185.06 91.99 192.29
  C 139.93 199.71 184.90 170.54 195.35 122.87
  C 208.63 62.24 160.19 7.28 98.67 12.90
  C 54.39 16.95 19.33 52.13 16.75 96.75
  Z
  M 435.75 94.75
  L 435.75 105.73
  Q 435.75 106.20 435.36 106.48
  C 413.46 122.03 386.97 115.10 384.51 85.72
  C 383.02 68.02 387.58 50.37 407.62 47.19
  C 419.46 45.31 430.45 50.11 434.49 62.17
  Q 434.66 62.66 435.17 62.56
  L 453.98 58.96
  A 0.76 0.76 0.0 0 0 454.57 58.01
  Q 447.90 33.75 422.82 30.38
  Q 409.16 28.55 398.55 31.04
  C 366.63 38.53 357.11 74.76 367.34 102.17
  C 381.33 139.63 427.90 137.75 454.58 117.84
  A 2.93 2.92 -18.5 0 0 455.75 115.50
  L 455.75 77.75
  A 0.50 0.50 0.0 0 0 455.25 77.25
  L 413.75 77.25
  Q 413.00 77.25 413.00 78.00
  L 413.00 93.75
  Q 413.00 94.25 413.50 94.25
  L 435.25 94.25
  Q 435.75 94.25 435.75 94.75
  Z
  M 245.50 31.93
  A 0.43 0.43 0.0 0 0 245.07 31.50
  L 225.93 31.50
  A 0.43 0.43 0.0 0 0 225.50 31.93
  L 225.50 129.57
  A 0.43 0.43 0.0 0 0 225.93 130.00
  L 245.07 130.00
  A 0.43 0.43 0.0 0 0 245.50 129.57
  L 245.50 31.93
  Z
  M 326.09 31.50
  A 0.34 0.34 0.0 0 0 325.75 31.84
  L 325.75 95.78
  A 0.34 0.34 0.0 0 1 325.12 95.95
  L 285.64 31.66
  A 0.34 0.34 0.0 0 0 285.35 31.50
  L 266.34 31.50
  A 0.34 0.34 0.0 0 0 266.00 31.84
  L 266.00 129.66
  A 0.34 0.34 0.0 0 0 266.34 130.00
  L 284.16 130.00
  A 0.34 0.34 0.0 0 0 284.50 129.66
  L 284.50 67.20
  A 0.34 0.34 0.0 0 1 285.13 67.02
  L 324.00 129.84
  A 0.34 0.34 0.0 0 0 324.29 130.00
  L 343.91 130.00
  A 0.34 0.34 0.0 0 0 344.25 129.66
  L 344.25 31.84
  A 0.34 0.34 0.0 0 0 343.91 31.50
  L 326.09 31.50
  Z
  M 496.45 113.25
  A 0.45 0.45 0.0 0 1 496.00 112.80
  L 496.00 87.45
  A 0.45 0.45 0.0 0 1 496.45 87.00
  L 544.80 87.00
  A 0.45 0.45 0.0 0 0 545.25 86.55
  L 545.25 70.45
  A 0.45 0.45 0.0 0 0 544.80 70.00
  L 496.45 70.00
  A 0.45 0.45 0.0 0 1 496.00 69.55
  L 496.00 48.95
  A 0.45 0.45 0.0 0 1 496.45 48.50
  L 548.55 48.50
  A 0.45 0.45 0.0 0 0 549.00 48.05
  L 549.00 31.95
  A 0.45 0.45 0.0 0 0 548.55 31.50
  L 476.45 31.50
  A 0.45 0.45 0.0 0 0 476.00 31.95
  L 476.00 129.55
  A 0.45 0.45 0.0 0 0 476.45 130.00
  L 550.55 130.00
  A 0.45 0.45 0.0 0 0 551.00 129.55
  L 551.00 113.70
  A 0.45 0.45 0.0 0 0 550.55 113.25
  L 496.45 113.25
  Z
  M 629.09 31.50
  A 0.34 0.34 0.0 0 0 628.75 31.84
  L 628.75 95.79
  A 0.34 0.34 0.0 0 1 628.12 95.96
  L 588.64 31.66
  A 0.34 0.34 0.0 0 0 588.35 31.50
  L 569.34 31.50
  A 0.34 0.34 0.0 0 0 569.00 31.84
  L 569.00 129.66
  A 0.34 0.34 0.0 0 0 569.34 130.00
  L 587.16 130.00
  A 0.34 0.34 0.0 0 0 587.50 129.66
  L 587.50 67.20
  A 0.34 0.34 0.0 0 1 588.13 67.02
  L 626.99 129.84
  A 0.34 0.34 0.0 0 0 627.28 130.00
  L 646.91 130.00
  A 0.34 0.34 0.0 0 0 647.25 129.66
  L 647.25 31.84
  A 0.34 0.34 0.0 0 0 646.91 31.50
  L 629.09 31.50
  Z
  M 689.50 31.93
  A 0.43 0.43 0.0 0 0 689.07 31.50
  L 669.93 31.50
  A 0.43 0.43 0.0 0 0 669.50 31.93
  L 669.50 129.57
  A 0.43 0.43 0.0 0 0 669.93 130.00
  L 689.07 130.00
  A 0.43 0.43 0.0 0 0 689.50 129.57
  L 689.50 31.93
  Z
  M 768.34 107.75
  A 0.43 0.43 0.0 0 1 768.75 108.03
  L 776.98 129.72
  A 0.43 0.43 0.0 0 0 777.39 130.00
  L 798.26 130.00
  A 0.43 0.43 0.0 0 0 798.66 129.41
  L 759.58 31.77
  A 0.43 0.43 0.0 0 0 759.18 31.50
  L 738.49 31.50
  A 0.43 0.43 0.0 0 0 738.09 31.77
  L 700.10 129.41
  A 0.43 0.43 0.0 0 0 700.50 130.00
  L 720.94 130.00
  A 0.43 0.43 0.0 0 0 721.34 129.72
  L 729.26 108.03
  A 0.43 0.43 0.0 0 1 729.66 107.75
  L 768.34 107.75
  Z
  M 266.43 148.93
  L 266.72 146.33
  A 0.93 0.92 4.1 0 1 267.66 145.52
  L 270.39 145.60
  A 0.49 0.48 6.3 0 0 270.88 145.22
  L 271.38 142.88
  Q 271.49 142.35 270.99 142.15
  Q 265.69 140.06 261.82 143.93
  A 0.63 0.61 -20.7 0 0 261.64 144.31
  L 261.13 149.18
  Q 261.09 149.53 260.74 149.53
  L 259.01 149.49
  Q 258.50 149.48 258.50 149.99
  L 258.50 153.00
  Q 258.50 153.50 259.00 153.50
  L 260.75 153.50
  Q 261.25 153.50 261.25 154.00
  L 261.25 168.37
  Q 261.25 169.00 261.87 169.00
  L 265.75 169.00
  Q 266.50 169.00 266.50 168.25
  L 266.50 154.00
  Q 266.50 153.50 267.00 153.50
  L 269.50 153.50
  Q 270.25 153.50 270.25 152.75
  L 270.25 150.12
  Q 270.25 149.50 269.62 149.50
  L 266.94 149.50
  Q 266.36 149.50 266.43 148.93
  Z
  M 706.25 159.50
  L 706.25 161.96
  Q 706.25 162.47 705.82 162.74
  C 689.91 172.85 686.84 142.82 702.18 146.63
  C 704.00 147.09 705.07 148.58 705.89 150.14
  A 0.86 0.86 0.0 0 0 706.80 150.59
  L 710.84 149.87
  Q 711.48 149.76 711.30 149.14
  Q 709.72 143.51 704.59 142.16
  C 692.62 139.00 684.33 148.44 687.35 159.68
  C 690.39 171.03 703.18 171.91 711.38 165.50
  Q 711.75 165.21 711.75 164.74
  L 711.75 155.00
  Q 711.75 154.50 711.25 154.50
  L 700.75 154.50
  Q 700.00 154.50 700.00 155.25
  L 700.00 158.50
  Q 700.00 159.00 700.50 159.00
  L 705.75 159.00
  Q 706.25 159.00 706.25 159.50
  Z
  M 231.00 142.71
  A 0.70 0.70 0.0 0 0 230.30 142.01
  L 226.20 142.01
  A 0.70 0.70 0.0 0 0 225.50 142.71
  L 225.50 168.31
  A 0.70 0.70 0.0 0 0 226.20 169.01
  L 230.30 169.01
  A 0.70 0.70 0.0 0 0 231.00 168.31
  L 231.00 142.71
  Z
  M 385.9926 142.5725
  A 0.60 0.60 0.0 0 0 385.3863 141.9789
  L 381.3265 142.0214
  A 0.60 0.60 0.0 0 0 380.7329 142.6276
  L 380.7674 145.9275
  A 0.60 0.60 0.0 0 0 381.3737 146.5211
  L 385.4335 146.4786
  A 0.60 0.60 0.0 0 0 386.0271 145.8724
  L 385.9926 142.5725
  Z
  M 521.00 150.99
  L 521.00 142.62
  Q 521.00 142.00 520.37 142.00
  L 516.38 142.00
  Q 515.75 142.00 515.75 142.63
  L 515.75 168.25
  Q 515.75 169.00 516.50 169.00
  L 520.48 169.00
  Q 520.98 169.00 520.98 168.50
  C 520.97 165.02 519.55 154.06 524.25 153.04
  C 530.20 151.76 528.26 164.93 528.24 168.46
  Q 528.24 169.00 528.78 169.00
  L 532.78 169.00
  A 0.72 0.72 0.0 0 0 533.50 168.28
  C 533.51 163.80 534.38 155.23 532.39 151.73
  C 530.11 147.70 524.91 148.80 521.49 151.24
  Q 521.00 151.59 521.00 150.99
  Z
  M 592.01 142.52
  A 0.52 0.52 0.0 0 0 591.49 142.00
  L 587.27 142.00
  A 0.52 0.52 0.0 0 0 586.75 142.52
  L 586.75 168.48
  A 0.52 0.52 0.0 0 0 587.27 169.00
  L 591.49 169.00
  A 0.52 0.52 0.0 0 0 592.01 168.48
  L 592.01 142.52
  Z
  M 648.9872 142.4217
  A 0.43 0.43 0.0 0 0 648.5542 141.9947
  L 644.1543 142.0254
  A 0.43 0.43 0.0 0 0 643.7274 142.4584
  L 643.7528 146.0983
  A 0.43 0.43 0.0 0 0 644.1858 146.5253
  L 648.5857 146.4946
  A 0.43 0.43 0.0 0 0 649.0126 146.0616
  L 648.9872 142.4217
  Z
  M 755.79 166.69
  C 767.20 178.06 775.35 154.27 765.18 149.84
  Q 760.32 147.73 756.78 151.09
  A 0.46 0.46 0.0 0 1 756.00 150.75
  L 756.00 142.75
  Q 756.00 142.00 755.25 142.00
  L 751.50 142.00
  Q 750.75 142.00 750.75 142.75
  L 750.75 168.25
  Q 750.75 169.00 751.50 169.00
  L 754.85 169.00
  A 0.70 0.69 82.8 0 0 755.52 168.13
  L 755.24 167.00
  A 0.33 0.33 0.0 0 1 755.79 166.69
  Z
  M 780.61 152.50
  A 0.36 0.36 0.0 0 1 780.25 152.14
  L 780.25 142.36
  A 0.36 0.36 0.0 0 0 779.89 142.00
  L 775.11 142.00
  A 0.36 0.36 0.0 0 0 774.75 142.36
  L 774.75 168.64
  A 0.36 0.36 0.0 0 0 775.11 169.00
  L 779.89 169.00
  A 0.36 0.36 0.0 0 0 780.25 168.64
  L 780.25 157.36
  A 0.36 0.36 0.0 0 1 780.61 157.00
  L 790.64 157.00
  A 0.36 0.36 0.0 0 1 791.00 157.36
  L 791.00 168.64
  A 0.36 0.36 0.0 0 0 791.36 169.00
  L 796.14 169.00
  A 0.36 0.36 0.0 0 0 796.50 168.64
  L 796.50 142.36
  A 0.36 0.36 0.0 0 0 796.14 142.00
  L 791.36 142.00
  A 0.36 0.36 0.0 0 0 791.00 142.36
  L 791.00 152.14
  A 0.36 0.36 0.0 0 1 790.64 152.50
  L 780.61 152.50
  Z
  M 373.25 149.00
  L 373.25 143.49
  Q 373.25 142.79 372.64 143.14
  L 368.50 145.50
  Q 368.00 145.78 368.00 146.35
  L 368.00 149.07
  Q 368.00 149.71 367.37 149.63
  L 366.06 149.46
  Q 365.50 149.39 365.50 149.95
  L 365.50 153.00
  Q 365.50 153.50 366.00 153.50
  L 367.50 153.50
  Q 368.05 153.50 368.04 154.05
  C 367.84 160.76 365.24 171.73 376.76 169.00
  Q 377.29 168.87 377.23 168.33
  L 376.91 165.54
  A 0.45 0.45 0.0 0 0 376.25 165.19
  Q 374.91 165.91 373.73 165.15
  A 1.05 1.05 0.0 0 1 373.25 164.27
  L 373.25 154.00
  Q 373.25 153.50 373.75 153.50
  L 376.38 153.50
  Q 376.93 153.50 376.95 152.95
  L 377.02 150.15
  Q 377.04 149.50 376.39 149.50
  L 373.75 149.50
  Q 373.25 149.50 373.25 149.00
  Z
  M 465.25 149.00
  L 465.25 143.49
  Q 465.25 142.81 464.66 143.15
  L 460.46 145.56
  A 0.91 0.91 0.0 0 0 460.00 146.35
  L 460.00 148.87
  A 0.66 0.66 0.0 0 1 459.31 149.53
  L 458.01 149.49
  Q 457.50 149.47 457.50 149.99
  L 457.50 152.75
  Q 457.50 153.50 458.25 153.50
  L 459.48 153.50
  Q 459.97 153.50 459.97 153.99
  C 459.97 160.55 457.19 171.82 468.75 168.96
  Q 469.30 168.82 469.23 168.25
  L 468.88 165.44
  Q 468.80 164.77 468.22 165.13
  C 466.32 166.29 465.24 165.19 465.24 163.24
  Q 465.24 158.64 465.25 154.01
  Q 465.26 153.50 465.76 153.50
  L 468.31 153.50
  Q 468.87 153.50 468.89 152.95
  L 469.04 150.16
  Q 469.07 149.50 468.41 149.50
  L 465.75 149.50
  Q 465.25 149.50 465.25 149.00
  Z
  M 241.27 151.48
  L 241.55 150.08
  Q 241.66 149.50 241.07 149.50
  L 237.25 149.50
  Q 236.75 149.50 236.75 150.00
  L 236.75 168.50
  Q 236.75 169.00 237.25 169.00
  L 241.49 169.00
  Q 242.00 169.00 242.00 168.49
  C 241.99 165.30 241.04 155.56 243.88 153.66
  C 251.23 148.77 249.25 166.09 249.24 168.44
  Q 249.24 169.00 249.80 169.00
  L 253.80 169.00
  Q 254.47 169.00 254.48 168.33
  Q 254.55 162.12 254.47 155.92
  C 254.37 148.09 246.47 147.22 241.90 151.81
  A 0.37 0.37 0.0 0 1 241.27 151.48
  Z
  M 292.83 159.24
  A 10.24 10.24 0.0 0 0 282.59 149.00
  A 10.24 10.24 0.0 0 0 272.35 159.24
  A 10.24 10.24 0.0 0 0 282.59 169.48
  A 10.24 10.24 0.0 0 0 292.83 159.24
  Z
  M 301.24 151.24
  L 301.53 150.09
  A 0.47 0.47 0.0 0 0 301.07 149.50
  L 297.25 149.50
  Q 296.75 149.50 296.75 150.00
  L 296.75 168.50
  Q 296.75 169.00 297.25 169.00
  L 301.50 169.00
  A 0.60 0.60 0.0 0 0 302.10 168.35
  C 301.90 165.76 300.47 150.46 307.27 154.31
  Q 307.83 154.62 308.01 154.01
  L 309.05 150.55
  Q 309.22 150.00 308.70 149.75
  Q 304.48 147.72 301.98 151.56
  A 0.41 0.41 0.0 0 1 301.24 151.24
  Z
  M 316.00 151.23
  L 316.00 150.12
  Q 316.00 149.50 315.37 149.50
  L 311.75 149.50
  Q 311.25 149.50 311.25 150.00
  L 311.25 168.25
  Q 311.25 169.00 312.00 169.00
  L 316.00 169.00
  Q 316.55 169.00 316.53 168.45
  Q 316.38 162.81 316.63 157.19
  C 316.86 152.18 323.18 151.33 323.06 156.27
  Q 322.93 162.34 323.03 168.51
  A 0.49 0.49 0.0 0 0 323.52 169.00
  L 327.75 169.00
  Q 328.27 169.00 328.27 168.47
  Q 328.19 159.49 328.32 157.08
  C 328.57 152.52 334.72 151.12 334.71 156.26
  Q 334.69 162.34 334.79 168.49
  Q 334.79 169.00 335.30 169.00
  L 339.31 169.00
  Q 339.90 169.00 339.92 168.41
  Q 340.21 157.50 339.95 154.56
  C 339.38 148.22 332.39 147.74 328.19 151.48
  Q 327.75 151.88 327.32 151.47
  Q 322.03 146.52 316.61 151.49
  Q 316.00 152.05 316.00 151.23
  Z
  M 356.24 167.06
  A 0.48 0.48 0.0 0 1 357.06 167.28
  L 357.34 168.46
  Q 357.47 169.00 358.03 169.00
  L 361.76 169.00
  Q 362.31 169.00 362.21 168.46
  Q 361.00 161.54 361.58 154.50
  C 362.13 147.82 346.70 146.57 345.32 154.22
  Q 345.23 154.73 345.74 154.82
  L 349.25 155.43
  Q 349.71 155.51 349.91 155.08
  C 351.36 151.92 356.94 152.30 356.17 155.98
  Q 356.07 156.46 355.60 156.57
  C 351.53 157.53 344.58 157.80 344.30 163.49
  C 343.98 169.98 352.47 171.08 356.24 167.06
  Z
  M 410.84 159.25
  A 10.25 10.25 0.0 0 0 400.59 149.00
  A 10.25 10.25 0.0 0 0 390.34 159.25
  A 10.25 10.25 0.0 0 0 400.59 169.50
  A 10.25 10.25 0.0 0 0 410.84 159.25
  Z
  M 419.22 151.46
  L 419.52 150.07
  Q 419.65 149.50 419.07 149.50
  L 415.25 149.50
  Q 414.75 149.50 414.75 150.00
  L 414.75 168.50
  Q 414.75 169.00 415.25 169.00
  L 419.49 169.00
  Q 420.00 169.00 420.00 168.49
  Q 419.99 163.28 420.03 158.09
  C 420.06 153.96 423.54 151.09 426.87 154.41
  A 1.07 1.05 22.8 0 1 427.17 155.12
  L 427.29 168.52
  Q 427.29 169.00 427.77 169.00
  L 431.93 169.00
  Q 432.52 169.00 432.51 168.42
  C 432.46 162.58 435.43 146.03 423.49 149.44
  C 422.03 149.86 421.02 150.94 419.72 151.81
  Q 419.04 152.26 419.22 151.46
  Z
  M 438.44 152.19
  C 434.27 159.34 444.66 161.42 449.01 162.22
  A 1.48 1.48 0.0 0 1 449.40 165.00
  Q 444.74 167.33 441.97 163.27
  Q 441.65 162.79 441.08 162.88
  L 437.31 163.45
  Q 436.78 163.54 436.97 164.04
  C 438.89 169.27 444.98 170.23 449.77 169.11
  C 455.46 167.77 457.93 160.43 451.15 157.95
  Q 447.09 156.47 443.08 155.61
  A 1.20 1.20 0.0 0 1 442.80 153.36
  Q 446.79 151.39 449.20 154.70
  Q 449.53 155.16 450.09 155.09
  L 453.74 154.60
  Q 454.31 154.52 454.16 153.97
  C 452.55 147.90 441.32 147.25 438.44 152.19
  Z
  M 477.01 160.75
  L 489.19 160.75
  Q 489.68 160.75 489.69 160.26
  Q 489.74 148.84 479.42 149.18
  C 469.48 149.50 468.16 166.71 477.91 169.09
  Q 485.78 171.01 489.25 164.13
  Q 489.51 163.62 488.95 163.53
  L 484.74 162.81
  Q 484.25 162.72 484.06 163.19
  C 482.25 167.60 476.75 165.29 476.56 161.22
  Q 476.54 160.75 477.01 160.75
  Z
  M 511.36 154.73
  C 506.89 143.43 490.74 149.57 493.87 162.34
  C 496.11 171.47 508.34 172.15 511.59 163.30
  A 0.70 0.69 14.6 0 0 511.04 162.37
  L 507.11 161.80
  Q 506.51 161.72 506.36 162.30
  L 505.98 163.77
  Q 505.87 164.20 505.52 164.47
  C 498.53 169.79 496.63 155.26 501.05 153.32
  Q 504.65 151.75 506.16 155.47
  A 0.67 0.67 0.0 0 0 506.87 155.89
  L 510.97 155.38
  A 0.48 0.48 0.0 0 0 511.36 154.73
  Z
  M 544.21 151.50
  L 544.52 150.07
  Q 544.65 149.50 544.07 149.50
  L 540.25 149.50
  Q 539.75 149.50 539.75 150.00
  L 539.75 168.50
  Q 539.75 169.00 540.25 169.00
  L 544.50 169.00
  Q 545.02 169.00 545.02 168.47
  Q 544.94 159.76 545.07 157.32
  C 545.35 152.44 551.96 151.29 552.19 156.08
  Q 552.34 159.11 552.22 168.42
  Q 552.21 169.00 552.79 169.00
  L 556.81 169.00
  Q 557.49 169.00 557.49 168.32
  C 557.52 163.08 558.15 156.93 556.70 151.91
  Q 556.54 151.36 556.08 151.02
  Q 550.09 146.63 544.86 151.85
  A 0.39 0.38 -16.5 0 1 544.21 151.50
  Z
  M 581.84 159.24
  A 10.25 10.25 0.0 0 0 571.59 148.99
  A 10.25 10.25 0.0 0 0 561.34 159.24
  A 10.25 10.25 0.0 0 0 571.59 169.49
  A 10.25 10.25 0.0 0 0 581.84 159.24
  Z
  M 615.84 159.24
  A 10.25 10.25 0.0 0 0 605.59 148.99
  A 10.25 10.25 0.0 0 0 595.34 159.24
  A 10.25 10.25 0.0 0 0 605.59 169.49
  A 10.25 10.25 0.0 0 0 615.84 159.24
  Z
  M 633.03 167.17
  C 634.62 172.51 628.78 175.32 626.24 171.37
  Q 625.95 170.92 625.43 170.87
  L 620.82 170.43
  Q 620.31 170.38 620.33 170.89
  C 620.53 178.34 633.31 178.72 636.85 174.16
  C 639.78 170.37 638.52 155.17 638.46 149.98
  Q 638.46 149.50 637.98 149.50
  L 634.38 149.50
  Q 633.75 149.50 633.75 150.13
  L 633.75 151.23
  Q 633.75 151.96 633.21 151.47
  C 628.08 146.89 622.11 148.97 620.08 155.15
  C 617.65 162.59 623.83 174.03 632.55 167.02
  Q 632.90 166.74 633.03 167.17
  Z
  M 659.01 160.75
  L 671.02 160.75
  A 0.60 0.60 0.0 0 0 671.62 160.20
  C 672.68 149.15 658.35 144.31 654.26 154.26
  C 648.55 168.20 666.80 175.48 671.12 164.14
  Q 671.33 163.58 670.74 163.48
  L 666.76 162.77
  Q 666.26 162.69 666.07 163.15
  C 664.27 167.61 658.75 165.30 658.56 161.22
  Q 658.54 160.75 659.01 160.75
  Z
  M 722.00 151.23
  L 722.00 150.12
  Q 722.00 149.50 721.38 149.50
  L 717.75 149.50
  Q 717.25 149.50 717.25 150.00
  L 717.25 168.25
  Q 717.25 169.00 718.00 169.00
  L 722.00 169.00
  Q 722.55 169.00 722.53 168.45
  C 722.45 165.41 721.80 156.86 723.32 154.47
  C 724.81 152.15 729.03 152.72 729.01 155.50
  Q 728.97 161.98 729.01 168.50
  Q 729.02 169.00 729.52 169.00
  L 733.73 169.00
  Q 734.22 169.00 734.22 168.51
  Q 734.23 162.90 734.46 157.33
  C 734.59 154.00 737.48 151.23 740.34 154.20
  A 1.28 1.23 -68.4 0 1 740.69 155.05
  L 740.78 168.52
  Q 740.78 169.00 741.27 169.00
  L 745.48 169.00
  Q 745.98 169.00 745.98 168.50
  C 746.02 164.47 746.91 154.98 744.96 151.76
  C 742.61 147.86 737.57 148.47 734.19 151.49
  Q 733.75 151.89 733.31 151.48
  Q 728.03 146.49 722.61 151.49
  Q 722.00 152.06 722.00 151.23
  Z
  M 385.99 149.81
  A 0.31 0.31 0.0 0 0 385.68 149.50
  L 381.06 149.50
  A 0.31 0.31 0.0 0 0 380.75 149.81
  L 380.75 168.69
  A 0.31 0.31 0.0 0 0 381.06 169.00
  L 385.68 169.00
  A 0.31 0.31 0.0 0 0 385.99 168.69
  L 385.99 149.81
  Z
  M 648.99 149.81
  A 0.31 0.31 0.0 0 0 648.68 149.50
  L 644.06 149.50
  A 0.31 0.31 0.0 0 0 643.75 149.81
  L 643.75 168.69
  A 0.31 0.31 0.0 0 0 644.06 169.00
  L 648.68 169.00
  A 0.31 0.31 0.0 0 0 648.99 168.69
  L 648.99 149.81
  Z"
/>
<path fill="#007880" d="
  M 91.99 192.29
  C 45.27 185.06 14.05 143.41 16.75 96.75
  C 19.33 52.13 54.39 16.95 98.67 12.90
  C 160.19 7.28 208.63 62.24 195.35 122.87
  C 184.90 170.54 139.93 199.71 91.99 192.29
  Z
  M 187.83 89.16
  C 181.22 55.67 158.54 31.59 125.46 23.13
  A 0.37 0.37 0.0 0 0 125.00 23.49
  L 125.00 173.02
  A 1.42 1.42 0.0 0 0 127.55 173.87
  L 187.42 94.16
  A 1.73 1.60 -23.3 0 0 187.73 93.46
  C 188.02 92.02 188.12 90.62 187.83 89.16
  Z
  M 84.52 25.00
  Q 84.91 24.84 85.00 24.53
  A 0.22 0.22 0.0 0 0 84.72 24.27
  C 54.56 33.17 35.18 54.63 27.05 84.70
  Q 26.50 86.75 27.95 85.20
  L 84.13 25.28
  Q 84.30 25.10 84.52 25.00
  Z
  M 24.65 103.76
  C 26.12 142.82 51.77 174.34 90.02 183.21
  A 0.80 0.80 0.0 0 0 91.00 182.43
  L 91.00 29.55
  A 0.40 0.40 0.0 0 0 90.31 29.28
  Q 61.78 59.77 33.06 90.46
  C 28.92 94.89 24.39 96.76 24.65 103.76
  Z
  M 187.85 105.63
  L 131.89 180.15
  A 0.43 0.43 0.0 0 0 132.37 180.81
  C 164.74 169.80 184.92 143.50 188.84 109.67
  Q 189.08 107.52 188.99 105.97
  Q 188.88 104.25 187.85 105.63
  Z"
/>
<path fill="#ffffff" d="
  M 125.46 23.13
  C 158.54 31.59 181.22 55.67 187.83 89.16
  C 188.12 90.62 188.02 92.02 187.73 93.46
  A 1.73 1.60 -23.3 0 1 187.42 94.16
  L 127.55 173.87
  A 1.42 1.42 0.0 0 1 125.00 173.02
  L 125.00 23.49
  A 0.37 0.37 0.0 0 1 125.46 23.13
  Z"
/>
<path fill="#ffffff" d="
  M 84.13 25.28
  L 27.95 85.20
  Q 26.50 86.75 27.05 84.70
  C 35.18 54.63 54.56 33.17 84.72 24.27
  A 0.22 0.22 0.0 0 1 85.00 24.53
  Q 84.91 24.84 84.52 25.00
  Q 84.30 25.10 84.13 25.28
  Z"
/>
<path fill="#ffffff" d="
  M 90.02 183.21
  C 51.77 174.34 26.12 142.82 24.65 103.76
  C 24.39 96.76 28.92 94.89 33.06 90.46
  Q 61.78 59.77 90.31 29.28
  A 0.40 0.40 0.0 0 1 91.00 29.55
  L 91.00 182.43
  A 0.80 0.80 0.0 0 1 90.02 183.21
  Z"
/>
<path fill="#007880" d="
  M 435.25 94.25
  L 413.50 94.25
  Q 413.00 94.25 413.00 93.75
  L 413.00 78.00
  Q 413.00 77.25 413.75 77.25
  L 455.25 77.25
  A 0.50 0.50 0.0 0 1 455.75 77.75
  L 455.75 115.50
  A 2.93 2.92 -18.5 0 1 454.58 117.84
  C 427.90 137.75 381.33 139.63 367.34 102.17
  C 357.11 74.76 366.63 38.53 398.55 31.04
  Q 409.16 28.55 422.82 30.38
  Q 447.90 33.75 454.57 58.01
  A 0.76 0.76 0.0 0 1 453.98 58.96
  L 435.17 62.56
  Q 434.66 62.66 434.49 62.17
  C 430.45 50.11 419.46 45.31 407.62 47.19
  C 387.58 50.37 383.02 68.02 384.51 85.72
  C 386.97 115.10 413.46 122.03 435.36 106.48
  Q 435.75 106.20 435.75 105.73
  L 435.75 94.75
  Q 435.75 94.25 435.25 94.25
  Z"
/>
<rect fill="#007880" x="225.50" y="31.50" width="20.00" height="98.50" rx="0.43"/>
<path fill="#007880" d="
  M 326.09 31.50
  L 343.91 31.50
  A 0.34 0.34 0.0 0 1 344.25 31.84
  L 344.25 129.66
  A 0.34 0.34 0.0 0 1 343.91 130.00
  L 324.29 130.00
  A 0.34 0.34 0.0 0 1 324.00 129.84
  L 285.13 67.02
  A 0.34 0.34 0.0 0 0 284.50 67.20
  L 284.50 129.66
  A 0.34 0.34 0.0 0 1 284.16 130.00
  L 266.34 130.00
  A 0.34 0.34 0.0 0 1 266.00 129.66
  L 266.00 31.84
  A 0.34 0.34 0.0 0 1 266.34 31.50
  L 285.35 31.50
  A 0.34 0.34 0.0 0 1 285.64 31.66
  L 325.12 95.95
  A 0.34 0.34 0.0 0 0 325.75 95.78
  L 325.75 31.84
  A 0.34 0.34 0.0 0 1 326.09 31.50
  Z"
/>
<path fill="#007880" d="
  M 496.45 113.25
  L 550.55 113.25
  A 0.45 0.45 0.0 0 1 551.00 113.70
  L 551.00 129.55
  A 0.45 0.45 0.0 0 1 550.55 130.00
  L 476.45 130.00
  A 0.45 0.45 0.0 0 1 476.00 129.55
  L 476.00 31.95
  A 0.45 0.45 0.0 0 1 476.45 31.50
  L 548.55 31.50
  A 0.45 0.45 0.0 0 1 549.00 31.95
  L 549.00 48.05
  A 0.45 0.45 0.0 0 1 548.55 48.50
  L 496.45 48.50
  A 0.45 0.45 0.0 0 0 496.00 48.95
  L 496.00 69.55
  A 0.45 0.45 0.0 0 0 496.45 70.00
  L 544.80 70.00
  A 0.45 0.45 0.0 0 1 545.25 70.45
  L 545.25 86.55
  A 0.45 0.45 0.0 0 1 544.80 87.00
  L 496.45 87.00
  A 0.45 0.45 0.0 0 0 496.00 87.45
  L 496.00 112.80
  A 0.45 0.45 0.0 0 0 496.45 113.25
  Z"
/>
<path fill="#007880" d="
  M 629.09 31.50
  L 646.91 31.50
  A 0.34 0.34 0.0 0 1 647.25 31.84
  L 647.25 129.66
  A 0.34 0.34 0.0 0 1 646.91 130.00
  L 627.28 130.00
  A 0.34 0.34 0.0 0 1 626.99 129.84
  L 588.13 67.02
  A 0.34 0.34 0.0 0 0 587.50 67.20
  L 587.50 129.66
  A 0.34 0.34 0.0 0 1 587.16 130.00
  L 569.34 130.00
  A 0.34 0.34 0.0 0 1 569.00 129.66
  L 569.00 31.84
  A 0.34 0.34 0.0 0 1 569.34 31.50
  L 588.35 31.50
  A 0.34 0.34 0.0 0 1 588.64 31.66
  L 628.12 95.96
  A 0.34 0.34 0.0 0 0 628.75 95.79
  L 628.75 31.84
  A 0.34 0.34 0.0 0 1 629.09 31.50
  Z"
/>
<rect fill="#007880" x="669.50" y="31.50" width="20.00" height="98.50" rx="0.43"/>
<path fill="#007880" d="
  M 768.34 107.75
  L 729.66 107.75
  A 0.43 0.43 0.0 0 0 729.26 108.03
  L 721.34 129.72
  A 0.43 0.43 0.0 0 1 720.94 130.00
  L 700.50 130.00
  A 0.43 0.43 0.0 0 1 700.10 129.41
  L 738.09 31.77
  A 0.43 0.43 0.0 0 1 738.49 31.50
  L 759.18 31.50
  A 0.43 0.43 0.0 0 1 759.58 31.77
  L 798.66 129.41
  A 0.43 0.43 0.0 0 1 798.26 130.00
  L 777.39 130.00
  A 0.43 0.43 0.0 0 1 776.98 129.72
  L 768.75 108.03
  A 0.43 0.43 0.0 0 0 768.34 107.75
  Z
  M 735.72 90.37
  A 0.33 0.33 0.0 0 0 736.03 90.81
  L 761.68 90.68
  A 0.33 0.33 0.0 0 0 761.98 90.23
  L 748.98 55.77
  A 0.33 0.33 0.0 0 0 748.36 55.77
  L 735.72 90.37
  Z"
/>
<path fill="#ffffff" d="
  M 735.72 90.37
  L 748.36 55.77
  A 0.33 0.33 0.0 0 1 748.98 55.77
  L 761.98 90.23
  A 0.33 0.33 0.0 0 1 761.68 90.68
  L 736.03 90.81
  A 0.33 0.33 0.0 0 1 735.72 90.37
  Z"
/>
<path fill="#ffffff" d="
  M 187.85 105.63
  Q 188.88 104.25 188.99 105.97
  Q 189.08 107.52 188.84 109.67
  C 184.92 143.50 164.74 169.80 132.37 180.81
  A 0.43 0.43 0.0 0 1 131.89 180.15
  L 187.85 105.63
  Z"
/>
<path fill="#007880" d="
  M 266.94 149.50
  L 269.62 149.50
  Q 270.25 149.50 270.25 150.12
  L 270.25 152.75
  Q 270.25 153.50 269.50 153.50
  L 267.00 153.50
  Q 266.50 153.50 266.50 154.00
  L 266.50 168.25
  Q 266.50 169.00 265.75 169.00
  L 261.87 169.00
  Q 261.25 169.00 261.25 168.37
  L 261.25 154.00
  Q 261.25 153.50 260.75 153.50
  L 259.00 153.50
  Q 258.50 153.50 258.50 153.00
  L 258.50 149.99
  Q 258.50 149.48 259.01 149.49
  L 260.74 149.53
  Q 261.09 149.53 261.13 149.18
  L 261.64 144.31
  A 0.63 0.61 -20.7 0 1 261.82 143.93
  Q 265.69 140.06 270.99 142.15
  Q 271.49 142.35 271.38 142.88
  L 270.88 145.22
  A 0.49 0.48 6.3 0 1 270.39 145.60
  L 267.66 145.52
  A 0.93 0.92 4.1 0 0 266.72 146.33
  L 266.43 148.93
  Q 266.36 149.50 266.94 149.50
  Z"
/>
<path fill="#007880" d="
  M 705.75 159.00
  L 700.50 159.00
  Q 700.00 159.00 700.00 158.50
  L 700.00 155.25
  Q 700.00 154.50 700.75 154.50
  L 711.25 154.50
  Q 711.75 154.50 711.75 155.00
  L 711.75 164.74
  Q 711.75 165.21 711.38 165.50
  C 703.18 171.91 690.39 171.03 687.35 159.68
  C 684.33 148.44 692.62 139.00 704.59 142.16
  Q 709.72 143.51 711.30 149.14
  Q 711.48 149.76 710.84 149.87
  L 706.80 150.59
  A 0.86 0.86 0.0 0 1 705.89 150.14
  C 705.07 148.58 704.00 147.09 702.18 146.63
  C 686.84 142.82 689.91 172.85 705.82 162.74
  Q 706.25 162.47 706.25 161.96
  L 706.25 159.50
  Q 706.25 159.00 705.75 159.00
  Z"
/>
<rect fill="#007880" x="225.50" y="142.01" width="5.50" height="27.00" rx="0.70"/>
<rect fill="#007880" x="-2.63" y="-2.25" transform="translate(383.38,144.25) rotate(-0.6)" width="5.26" height="4.50" rx="0.60"/>
<path fill="#007880" d="
  M 521.49 151.24
  C 524.91 148.80 530.11 147.70 532.39 151.73
  C 534.38 155.23 533.51 163.80 533.50 168.28
  A 0.72 0.72 0.0 0 1 532.78 169.00
  L 528.78 169.00
  Q 528.24 169.00 528.24 168.46
  C 528.26 164.93 530.20 151.76 524.25 153.04
  C 519.55 154.06 520.97 165.02 520.98 168.50
  Q 520.98 169.00 520.48 169.00
  L 516.50 169.00
  Q 515.75 169.00 515.75 168.25
  L 515.75 142.63
  Q 515.75 142.00 516.38 142.00
  L 520.37 142.00
  Q 521.00 142.00 521.00 142.62
  L 521.00 150.99
  Q 521.00 151.59 521.49 151.24
  Z"
/>
<rect fill="#007880" x="586.75" y="142.00" width="5.26" height="27.00" rx="0.52"/>
<rect fill="#007880" x="-2.63" y="-2.25" transform="translate(646.37,144.26) rotate(-0.4)" width="5.26" height="4.50" rx="0.43"/>
<path fill="#007880" d="
  M 755.24 167.00
  L 755.52 168.13
  A 0.70 0.69 82.8 0 1 754.85 169.00
  L 751.50 169.00
  Q 750.75 169.00 750.75 168.25
  L 750.75 142.75
  Q 750.75 142.00 751.50 142.00
  L 755.25 142.00
  Q 756.00 142.00 756.00 142.75
  L 756.00 150.75
  A 0.46 0.46 0.0 0 0 756.78 151.09
  Q 760.32 147.73 765.18 149.84
  C 775.35 154.27 767.20 178.06 755.79 166.69
  A 0.33 0.33 0.0 0 0 755.24 167.00
  Z
  M 760.4024 165.5486
  A 6.32 4.33 88.8 0 0 764.5991 159.1393
  A 6.32 4.33 88.8 0 0 760.1376 152.9114
  A 6.32 4.33 88.8 0 0 755.9409 159.3207
  A 6.32 4.33 88.8 0 0 760.4024 165.5486
  Z"
/>
<path fill="#007880" d="
  M 780.61 152.50
  L 790.64 152.50
  A 0.36 0.36 0.0 0 0 791.00 152.14
  L 791.00 142.36
  A 0.36 0.36 0.0 0 1 791.36 142.00
  L 796.14 142.00
  A 0.36 0.36 0.0 0 1 796.50 142.36
  L 796.50 168.64
  A 0.36 0.36 0.0 0 1 796.14 169.00
  L 791.36 169.00
  A 0.36 0.36 0.0 0 1 791.00 168.64
  L 791.00 157.36
  A 0.36 0.36 0.0 0 0 790.64 157.00
  L 780.61 157.00
  A 0.36 0.36 0.0 0 0 780.25 157.36
  L 780.25 168.64
  A 0.36 0.36 0.0 0 1 779.89 169.00
  L 775.11 169.00
  A 0.36 0.36 0.0 0 1 774.75 168.64
  L 774.75 142.36
  A 0.36 0.36 0.0 0 1 775.11 142.00
  L 779.89 142.00
  A 0.36 0.36 0.0 0 1 780.25 142.36
  L 780.25 152.14
  A 0.36 0.36 0.0 0 0 780.61 152.50
  Z"
/>
<path fill="#007880" d="
  M 373.75 149.50
  L 376.39 149.50
  Q 377.04 149.50 377.02 150.15
  L 376.95 152.95
  Q 376.93 153.50 376.38 153.50
  L 373.75 153.50
  Q 373.25 153.50 373.25 154.00
  L 373.25 164.27
  A 1.05 1.05 0.0 0 0 373.73 165.15
  Q 374.91 165.91 376.25 165.19
  A 0.45 0.45 0.0 0 1 376.91 165.54
  L 377.23 168.33
  Q 377.29 168.87 376.76 169.00
  C 365.24 171.73 367.84 160.76 368.04 154.05
  Q 368.05 153.50 367.50 153.50
  L 366.00 153.50
  Q 365.50 153.50 365.50 153.00
  L 365.50 149.95
  Q 365.50 149.39 366.06 149.46
  L 367.37 149.63
  Q 368.00 149.71 368.00 149.07
  L 368.00 146.35
  Q 368.00 145.78 368.50 145.50
  L 372.64 143.14
  Q 373.25 142.79 373.25 143.49
  L 373.25 149.00
  Q 373.25 149.50 373.75 149.50
  Z"
/>
<path fill="#007880" d="
  M 465.75 149.50
  L 468.41 149.50
  Q 469.07 149.50 469.04 150.16
  L 468.89 152.95
  Q 468.87 153.50 468.31 153.50
  L 465.76 153.50
  Q 465.26 153.50 465.25 154.01
  Q 465.24 158.64 465.24 163.24
  C 465.24 165.19 466.32 166.29 468.22 165.13
  Q 468.80 164.77 468.88 165.44
  L 469.23 168.25
  Q 469.30 168.82 468.75 168.96
  C 457.19 171.82 459.97 160.55 459.97 153.99
  Q 459.97 153.50 459.48 153.50
  L 458.25 153.50
  Q 457.50 153.50 457.50 152.75
  L 457.50 149.99
  Q 457.50 149.47 458.01 149.49
  L 459.31 149.53
  A 0.66 0.66 0.0 0 0 460.00 148.87
  L 460.00 146.35
  A 0.91 0.91 0.0 0 1 460.46 145.56
  L 464.66 143.15
  Q 465.25 142.81 465.25 143.49
  L 465.25 149.00
  Q 465.25 149.50 465.75 149.50
  Z"
/>
<path fill="#007880" d="
  M 241.27 151.48
  A 0.37 0.37 0.0 0 0 241.90 151.81
  C 246.47 147.22 254.37 148.09 254.47 155.92
  Q 254.55 162.12 254.48 168.33
  Q 254.47 169.00 253.80 169.00
  L 249.80 169.00
  Q 249.24 169.00 249.24 168.44
  C 249.25 166.09 251.23 148.77 243.88 153.66
  C 241.04 155.56 241.99 165.30 242.00 168.49
  Q 242.00 169.00 241.49 169.00
  L 237.25 169.00
  Q 236.75 169.00 236.75 168.50
  L 236.75 150.00
  Q 236.75 149.50 237.25 149.50
  L 241.07 149.50
  Q 241.66 149.50 241.55 150.08
  L 241.27 151.48
  Z"
/>
<path fill="#007880" d="
  M 292.83 159.24
  A 10.24 10.24 0.0 0 1 282.59 169.48
  A 10.24 10.24 0.0 0 1 272.35 159.24
  A 10.24 10.24 0.0 0 1 282.59 149.00
  A 10.24 10.24 0.0 0 1 292.83 159.24
  Z
  M 282.5200 165.5000
  A 6.26 4.82 90.0 0 0 287.3400 159.2400
  A 6.26 4.82 90.0 0 0 282.5200 152.9800
  A 6.26 4.82 90.0 0 0 277.7000 159.2400
  A 6.26 4.82 90.0 0 0 282.5200 165.5000
  Z"
/>
<path fill="#007880" d="
  M 301.98 151.56
  Q 304.48 147.72 308.70 149.75
  Q 309.22 150.00 309.05 150.55
  L 308.01 154.01
  Q 307.83 154.62 307.27 154.31
  C 300.47 150.46 301.90 165.76 302.10 168.35
  A 0.60 0.60 0.0 0 1 301.50 169.00
  L 297.25 169.00
  Q 296.75 169.00 296.75 168.50
  L 296.75 150.00
  Q 296.75 149.50 297.25 149.50
  L 301.07 149.50
  A 0.47 0.47 0.0 0 1 301.53 150.09
  L 301.24 151.24
  A 0.41 0.41 0.0 0 0 301.98 151.56
  Z"
/>
<path fill="#007880" d="
  M 316.61 151.49
  Q 322.03 146.52 327.32 151.47
  Q 327.75 151.88 328.19 151.48
  C 332.39 147.74 339.38 148.22 339.95 154.56
  Q 340.21 157.50 339.92 168.41
  Q 339.90 169.00 339.31 169.00
  L 335.30 169.00
  Q 334.79 169.00 334.79 168.49
  Q 334.69 162.34 334.71 156.26
  C 334.72 151.12 328.57 152.52 328.32 157.08
  Q 328.19 159.49 328.27 168.47
  Q 328.27 169.00 327.75 169.00
  L 323.52 169.00
  A 0.49 0.49 0.0 0 1 323.03 168.51
  Q 322.93 162.34 323.06 156.27
  C 323.18 151.33 316.86 152.18 316.63 157.19
  Q 316.38 162.81 316.53 168.45
  Q 316.55 169.00 316.00 169.00
  L 312.00 169.00
  Q 311.25 169.00 311.25 168.25
  L 311.25 150.00
  Q 311.25 149.50 311.75 149.50
  L 315.37 149.50
  Q 316.00 149.50 316.00 150.12
  L 316.00 151.23
  Q 316.00 152.05 316.61 151.49
  Z"
/>
<path fill="#007880" d="
  M 356.24 167.06
  C 352.47 171.08 343.98 169.98 344.30 163.49
  C 344.58 157.80 351.53 157.53 355.60 156.57
  Q 356.07 156.46 356.17 155.98
  C 356.94 152.30 351.36 151.92 349.91 155.08
  Q 349.71 155.51 349.25 155.43
  L 345.74 154.82
  Q 345.23 154.73 345.32 154.22
  C 346.70 146.57 362.13 147.82 361.58 154.50
  Q 361.00 161.54 362.21 168.46
  Q 362.31 169.00 361.76 169.00
  L 358.03 169.00
  Q 357.47 169.00 357.34 168.46
  L 357.06 167.28
  A 0.48 0.48 0.0 0 0 356.24 167.06
  Z
  M 355.03 160.01
  L 349.89 161.86
  A 0.88 0.88 0.0 0 0 349.36 162.98
  L 349.41 163.12
  A 3.47 3.44 70.2 0 0 353.82 165.22
  L 354.14 165.11
  A 3.47 3.44 70.2 0 0 356.20 160.68
  L 356.15 160.54
  A 0.88 0.88 0.0 0 0 355.03 160.01
  Z"
/>
<path fill="#007880" d="
  M 410.84 159.25
  A 10.25 10.25 0.0 0 1 400.59 169.50
  A 10.25 10.25 0.0 0 1 390.34 159.25
  A 10.25 10.25 0.0 0 1 400.59 149.00
  A 10.25 10.25 0.0 0 1 410.84 159.25
  Z
  M 400.5100 165.5000
  A 6.25 4.82 90.0 0 0 405.3300 159.2500
  A 6.25 4.82 90.0 0 0 400.5100 153.0000
  A 6.25 4.82 90.0 0 0 395.6900 159.2500
  A 6.25 4.82 90.0 0 0 400.5100 165.5000
  Z"
/>
<path fill="#007880" d="
  M 419.72 151.81
  C 421.02 150.94 422.03 149.86 423.49 149.44
  C 435.43 146.03 432.46 162.58 432.51 168.42
  Q 432.52 169.00 431.93 169.00
  L 427.77 169.00
  Q 427.29 169.00 427.29 168.52
  L 427.17 155.12
  A 1.07 1.05 22.8 0 0 426.87 154.41
  C 423.54 151.09 420.06 153.96 420.03 158.09
  Q 419.99 163.28 420.00 168.49
  Q 420.00 169.00 419.49 169.00
  L 415.25 169.00
  Q 414.75 169.00 414.75 168.50
  L 414.75 150.00
  Q 414.75 149.50 415.25 149.50
  L 419.07 149.50
  Q 419.65 149.50 419.52 150.07
  L 419.22 151.46
  Q 419.04 152.26 419.72 151.81
  Z"
/>
<path fill="#007880" d="
  M 438.44 152.19
  C 441.32 147.25 452.55 147.90 454.16 153.97
  Q 454.31 154.52 453.74 154.60
  L 450.09 155.09
  Q 449.53 155.16 449.20 154.70
  Q 446.79 151.39 442.80 153.36
  A 1.20 1.20 0.0 0 0 443.08 155.61
  Q 447.09 156.47 451.15 157.95
  C 457.93 160.43 455.46 167.77 449.77 169.11
  C 444.98 170.23 438.89 169.27 436.97 164.04
  Q 436.78 163.54 437.31 163.45
  L 441.08 162.88
  Q 441.65 162.79 441.97 163.27
  Q 444.74 167.33 449.40 165.00
  A 1.48 1.48 0.0 0 0 449.01 162.22
  C 444.66 161.42 434.27 159.34 438.44 152.19
  Z"
/>
<path fill="#007880" d="
  M 476.56 161.22
  C 476.75 165.29 482.25 167.60 484.06 163.19
  Q 484.25 162.72 484.74 162.81
  L 488.95 163.53
  Q 489.51 163.62 489.25 164.13
  Q 485.78 171.01 477.91 169.09
  C 468.16 166.71 469.48 149.50 479.42 149.18
  Q 489.74 148.84 489.69 160.26
  Q 489.68 160.75 489.19 160.75
  L 477.01 160.75
  Q 476.54 160.75 476.56 161.22
  Z
  M 477.05 157.51
  L 483.97 157.49
  A 0.43 0.43 0.0 0 0 484.40 157.06
  L 484.40 156.91
  A 3.84 3.83 89.9 0 0 480.57 153.08
  L 480.45 153.08
  A 3.84 3.83 89.9 0 0 476.62 156.93
  L 476.62 157.08
  A 0.43 0.43 0.0 0 0 477.05 157.51
  Z"
/>
<path fill="#007880" d="
  M 493.87 162.34
  C 490.74 149.57 506.89 143.43 511.36 154.73
  A 0.48 0.48 0.0 0 1 510.97 155.38
  L 506.87 155.89
  A 0.67 0.67 0.0 0 1 506.16 155.47
  Q 504.65 151.75 501.05 153.32
  C 496.63 155.26 498.53 169.79 505.52 164.47
  Q 505.87 164.20 505.98 163.77
  L 506.36 162.30
  Q 506.51 161.72 507.11 161.80
  L 511.04 162.37
  A 0.70 0.69 14.6 0 1 511.59 163.30
  C 508.34 172.15 496.11 171.47 493.87 162.34
  Z"
/>
<path fill="#007880" d="
  M 544.86 151.85
  Q 550.09 146.63 556.08 151.02
  Q 556.54 151.36 556.70 151.91
  C 558.15 156.93 557.52 163.08 557.49 168.32
  Q 557.49 169.00 556.81 169.00
  L 552.79 169.00
  Q 552.21 169.00 552.22 168.42
  Q 552.34 159.11 552.19 156.08
  C 551.96 151.29 545.35 152.44 545.07 157.32
  Q 544.94 159.76 545.02 168.47
  Q 545.02 169.00 544.50 169.00
  L 540.25 169.00
  Q 539.75 169.00 539.75 168.50
  L 539.75 150.00
  Q 539.75 149.50 540.25 149.50
  L 544.07 149.50
  Q 544.65 149.50 544.52 150.07
  L 544.21 151.50
  A 0.39 0.38 -16.5 0 0 544.86 151.85
  Z"
/>
<path fill="#007880" d="
  M 581.84 159.24
  A 10.25 10.25 0.0 0 1 571.59 169.49
  A 10.25 10.25 0.0 0 1 561.34 159.24
  A 10.25 10.25 0.0 0 1 571.59 148.99
  A 10.25 10.25 0.0 0 1 581.84 159.24
  Z
  M 571.4783 165.4800
  A 6.23 4.80 90.2 0 0 576.3000 159.2668
  A 6.23 4.80 90.2 0 0 571.5217 153.0200
  A 6.23 4.80 90.2 0 0 566.7000 159.2332
  A 6.23 4.80 90.2 0 0 571.4783 165.4800
  Z"
/>
<path fill="#007880" d="
  M 615.84 159.24
  A 10.25 10.25 0.0 0 1 605.59 169.49
  A 10.25 10.25 0.0 0 1 595.34 159.24
  A 10.25 10.25 0.0 0 1 605.59 148.99
  A 10.25 10.25 0.0 0 1 615.84 159.24
  Z
  M 605.5217 165.4900
  A 6.23 4.80 89.8 0 0 610.3000 159.2432
  A 6.23 4.80 89.8 0 0 605.4783 153.0300
  A 6.23 4.80 89.8 0 0 600.7000 159.2768
  A 6.23 4.80 89.8 0 0 605.5217 165.4900
  Z"
/>
<path fill="#007880" d="
  M 632.55 167.02
  C 623.83 174.03 617.65 162.59 620.08 155.15
  C 622.11 148.97 628.08 146.89 633.21 151.47
  Q 633.75 151.96 633.75 151.23
  L 633.75 150.13
  Q 633.75 149.50 634.38 149.50
  L 637.98 149.50
  Q 638.46 149.50 638.46 149.98
  C 638.52 155.17 639.78 170.37 636.85 174.16
  C 633.31 178.72 620.53 178.34 620.33 170.89
  Q 620.31 170.38 620.82 170.43
  L 625.43 170.87
  Q 625.95 170.92 626.24 171.37
  C 628.78 175.32 634.62 172.51 633.03 167.17
  Q 632.90 166.74 632.55 167.02
  Z
  M 628.9490 165.0000
  A 6.02 4.32 90.2 0 0 633.2900 158.9951
  A 6.02 4.32 90.2 0 0 628.9910 152.9600
  A 6.02 4.32 90.2 0 0 624.6500 158.9649
  A 6.02 4.32 90.2 0 0 628.9490 165.0000
  Z"
/>
<path fill="#007880" d="
  M 658.56 161.22
  C 658.75 165.30 664.27 167.61 666.07 163.15
  Q 666.26 162.69 666.76 162.77
  L 670.74 163.48
  Q 671.33 163.58 671.12 164.14
  C 666.80 175.48 648.55 168.20 654.26 154.26
  C 658.35 144.31 672.68 149.15 671.62 160.20
  A 0.60 0.60 0.0 0 1 671.02 160.75
  L 659.01 160.75
  Q 658.54 160.75 658.56 161.22
  Z
  M 659.06 157.50
  L 665.98 157.50
  A 0.43 0.43 0.0 0 0 666.41 157.07
  L 666.41 156.94
  A 3.84 3.82 -90.0 0 0 662.59 153.10
  L 662.45 153.10
  A 3.84 3.82 90.0 0 0 658.63 156.94
  L 658.63 157.07
  A 0.43 0.43 0.0 0 0 659.06 157.50
  Z"
/>
<path fill="#007880" d="
  M 722.61 151.49
  Q 728.03 146.49 733.31 151.48
  Q 733.75 151.89 734.19 151.49
  C 737.57 148.47 742.61 147.86 744.96 151.76
  C 746.91 154.98 746.02 164.47 745.98 168.50
  Q 745.98 169.00 745.48 169.00
  L 741.27 169.00
  Q 740.78 169.00 740.78 168.52
  L 740.69 155.05
  A 1.28 1.23 -68.4 0 0 740.34 154.20
  C 737.48 151.23 734.59 154.00 734.46 157.33
  Q 734.23 162.90 734.22 168.51
  Q 734.22 169.00 733.73 169.00
  L 729.52 169.00
  Q 729.02 169.00 729.01 168.50
  Q 728.97 161.98 729.01 155.50
  C 729.03 152.72 724.81 152.15 723.32 154.47
  C 721.80 156.86 722.45 165.41 722.53 168.45
  Q 722.55 169.00 722.00 169.00
  L 718.00 169.00
  Q 717.25 169.00 717.25 168.25
  L 717.25 150.00
  Q 717.25 149.50 717.75 149.50
  L 721.38 149.50
  Q 722.00 149.50 722.00 150.12
  L 722.00 151.23
  Q 722.00 152.06 722.61 151.49
  Z"
/>
<rect fill="#007880" x="380.75" y="149.50" width="5.24" height="19.50" rx="0.31"/>
<rect fill="#007880" x="643.75" y="149.50" width="5.24" height="19.50" rx="0.31"/>
<ellipse fill="#ffffff" cx="0.00" cy="0.00" transform="translate(282.52,159.24) rotate(90.0)" rx="6.26" ry="4.82"/>
<ellipse fill="#ffffff" cx="0.00" cy="0.00" transform="translate(400.51,159.25) rotate(90.0)" rx="6.25" ry="4.82"/>
<path fill="#ffffff" d="
  M 477.05 157.51
  A 0.43 0.43 0.0 0 1 476.62 157.08
  L 476.62 156.93
  A 3.84 3.83 89.9 0 1 480.45 153.08
  L 480.57 153.08
  A 3.84 3.83 89.9 0 1 484.40 156.91
  L 484.40 157.06
  A 0.43 0.43 0.0 0 1 483.97 157.49
  L 477.05 157.51
  Z"
/>
<ellipse fill="#ffffff" cx="0.00" cy="0.00" transform="translate(571.50,159.25) rotate(90.2)" rx="6.23" ry="4.80"/>
<ellipse fill="#ffffff" cx="0.00" cy="0.00" transform="translate(605.50,159.26) rotate(89.8)" rx="6.23" ry="4.80"/>
<ellipse fill="#ffffff" cx="0.00" cy="0.00" transform="translate(628.97,158.98) rotate(90.2)" rx="6.02" ry="4.32"/>
<path fill="#ffffff" d="
  M 659.06 157.50
  A 0.43 0.43 0.0 0 1 658.63 157.07
  L 658.63 156.94
  A 3.84 3.82 90.0 0 1 662.45 153.10
  L 662.59 153.10
  A 3.84 3.82 -90.0 0 1 666.41 156.94
  L 666.41 157.07
  A 0.43 0.43 0.0 0 1 665.98 157.50
  L 659.06 157.50
  Z"
/>
<ellipse fill="#ffffff" cx="0.00" cy="0.00" transform="translate(760.27,159.23) rotate(88.8)" rx="6.32" ry="4.33"/>
<path fill="#ffffff" d="
  M 355.03 160.01
  A 0.88 0.88 0.0 0 1 356.15 160.54
  L 356.20 160.68
  A 3.47 3.44 70.2 0 1 354.14 165.11
  L 353.82 165.22
  A 3.47 3.44 70.2 0 1 349.41 163.12
  L 349.36 162.98
  A 0.88 0.88 0.0 0 1 349.89 161.86
  L 355.03 160.01
  Z"
/>
</svg>
