<svg viewBox="0 0 3309 1150" xmlns="http://www.w3.org/2000/svg" xml:space="preserve" style="fill-rule:evenodd;clip-rule:evenodd;stroke-linejoin:round;stroke-miterlimit:2">
  <path d="M794 120c-1-4-1-8-27-30-10-9-22-13-32-16l-1-1a19492 19492 0 0 0-172-56c-19-6-30-10-64-13-39-3-65-4-94-3-38 2-64 14-69 16L223 75h-1l-27 2a467 467 0 0 0-135 25c-2 1-40 14-53 39-13 27-5 43 5 51 6 5 30 14 69 14 5 0 3-3 0-3-53-11-61-16-65-21s-11-14 0-36 47-34 48-34l14-5c-9 5-20 13-28 20-13 13-19 26-15 29 5 6 16 1 29-13 14-16 15-36 29-40a637 637 0 0 1 129-18c6 3 58 10 79-2 2-2 1-3-2-2-29 3-58 2-62-2l103-53c3-1 27-13 65-15 28-1 54 0 92 4 33 2 43 6 62 11l6 2 166 55h1c10 4 20 7 29 15l14 12c-38-19-125-19-139-19-3 0-3 3 0 4 98 6 127 20 134 24 5 2 11 5 12 7v5c-1 12-7 39-10 43-4 5-12 12-28 17-22 7-70 8-71 8-2 0-5 2 0 4 12 3 62 0 73-3 19-5 28-13 33-19a143 143 0 0 0 15-61Z" style="fill:#fff;fill-rule:nonzero" transform="scale(4.16667)"/>
  <path d="M154 135h7l-4 30 34-30h11l-40 34 34 39h-9l-31-35-4 35h-8l10-73Zm76 68a22 22 0 0 0 21-12c2-4 3-8 3-13 0-6-1-10-5-14-3-3-8-5-14-5s-12 3-17 7c-4 5-7 11-7 18 0 6 2 10 6 14 3 3 8 5 13 5Zm27 5h-7l1-8c-6 6-13 9-21 9s-14-2-18-7c-5-4-7-11-7-18 0-8 3-16 9-22s13-9 21-9a23 23 0 0 1 20 12l2-11h7l-7 54Zm26-54h7l-3 23-2 12c0 4 2 8 4 10 3 3 6 4 10 4s7-1 9-3c3-2 4-5 5-8 1-1 2-5 2-11l4-27h7l-3 21c-1 9-2 16-4 20a20 20 0 0 1-20 14 19 19 0 0 1-20-20v-8l1-4v-2l3-21Zm82-19-1 7-7-4-4 2-2 8-1 6h11v6h-12l-6 48h-7l7-48h-7l1-6h6l1-4 3-12a11 11 0 0 1 9-6l9 3Zm8 19h7l-2 8 8-7 10-2c4 0 8 1 11 3 2 2 4 5 5 9l9-9 11-3a17 17 0 0 1 17 17v8l-4 30h-7l4-26 1-12c0-3-1-5-3-7s-5-3-8-3c-4 0-7 1-10 3s-6 5-7 8l-3 11-3 26h-7l4-30v-7c0-4-1-6-3-9-2-2-4-3-8-3l-8 2a18 18 0 0 0-10 13l-1 9-4 25h-6l7-54Zm114 49a22 22 0 0 0 21-12c2-4 3-8 3-13 0-6-2-10-5-14a23 23 0 0 0-31 2c-4 5-7 11-7 18 0 6 2 10 5 14 4 3 8 5 14 5Zm26 5h-6l1-8c-7 6-14 9-22 9-7 0-13-2-18-7-4-4-7-11-7-18 0-8 3-16 10-22 6-6 13-9 21-9a23 23 0 0 1 20 12l2-11h7l-8 54Zm24-54h6l-1 9c6-7 12-10 19-10 6 0 10 2 14 5 3 3 5 8 5 14l-1 11-4 25h-6l3-25 1-11c0-4-1-7-3-9-3-3-6-4-9-4-4 0-7 1-11 3-3 2-5 4-7 8-2 3-3 8-4 15l-3 23h-7l8-54Zm61 0h7l-1 9c5-7 12-10 19-10 5 0 10 2 13 5 4 3 5 8 5 14l-1 11-3 25h-7l3-25 1-11c0-4-1-7-3-9-2-3-5-4-9-4s-7 1-10 3-6 4-7 8c-2 3-3 8-4 15l-3 23h-7l7-54Z" style="fill:#f36f21;fill-rule:nonzero" transform="scale(4.16667)"/>
  <path d="M84 238h4v14l15-14h5l-18 17 20 20h-5l-17-17v17h-4v-37Zm30-1h4v38h-4zm24 13a11 11 0 0 0-9 6 11 11 0 0 0 9 17 11 11 0 0 0 10-6l1-5a11 11 0 0 0-11-12Zm15-3v28h-4v-4l-5 4-6 1c-4 0-7-1-10-4s-4-7-4-11 1-7 4-10 6-4 10-4a13 13 0 0 1 11 6v-6h4Zm22 4-3 2c-1-2-3-3-5-3l-3 1-1 3 1 3 4 2 5 4 2 5-3 6-6 2a11 11 0 0 1-8-4l2-2 6 3 4-2a4 4 0 0 0 0-6l-4-3c-3-1-4-2-5-4l-2-4c0-2 1-4 3-5 1-2 3-2 5-2 3 0 5 1 8 4Zm20 0-2 2-6-3-3 1-1 3 1 3 4 2 6 4 1 5-2 6-6 2a11 11 0 0 1-9-4l3-2c2 2 3 3 6 3l3-2a4 4 0 0 0 1-6l-5-3-5-4-1-4c0-2 0-4 2-5 1-2 3-2 5-2 3 0 5 1 8 4Zm6-4h3v28h-3v-28Zm2-11 2 1 1 2-1 2-2 1-2-1-1-2 1-2 2-1Zm23 15-2 2-6-3-3 1-1 3 1 3 4 2 5 4 2 5-3 6-6 2a11 11 0 0 1-8-4l3-2c1 2 3 3 5 3l4-2a4 4 0 0 0 0-6l-4-3c-3-1-4-2-5-4l-1-4c0-2 0-4 2-5 1-2 3-2 5-2 3 0 5 1 8 4Zm33 2-3 2c-2-3-5-5-10-5-3 0-6 1-8 3-2 3-3 5-3 8a11 11 0 0 0 5 10l6 2c4 0 8-2 10-5l3 2-5 4-8 2c-4 0-8-1-11-4s-4-6-4-10a15 15 0 0 1 8-13c2-2 5-2 7-2a17 17 0 0 1 10 3l3 3Zm7-16h4v15l4-4 6-1 6 1 3 5 1 8v14h-3v-13l-1-6-2-5-5-1-5 2-4 6v17h-4v-38Zm55 22-2-5-3-3-5-1c-3 0-5 1-7 3-2 1-3 3-3 6h20Zm0 7 3 2-3 4a14 14 0 0 1-10 4c-4 0-8-1-11-4-2-3-3-7-3-11l3-9c3-3 6-5 11-5s8 2 11 5c2 3 3 6 3 10h-25c0 3 1 6 3 8s5 3 8 3a12 12 0 0 0 7-3l3-4Zm10-19h3v5l4-4 4-1 3 1-2 3-2-1-3 2-3 4-1 10v9h-3v-28Zm32-9h4v14l15-14h5l-18 17 19 20h-5l-16-17v17h-4v-37Zm44 12a11 11 0 0 0-10 6 11 11 0 0 0 0 11 11 11 0 0 0 10 6 11 11 0 0 0 9-6l2-5a11 11 0 0 0-11-12Zm14-3v28h-4v-4l-5 4-6 1c-4 0-7-1-10-4s-4-7-4-11 1-7 4-10 6-4 10-4a13 13 0 0 1 11 6v-6h4Zm7 0h3v5l4-4 3-1 4 1-2 3-2-1-4 2-2 4-1 10v9h-3v-28Zm30 3c-3 0-6 1-8 4-2 2-3 4-3 8a11 11 0 0 0 5 9l6 2 5-2 4-4 2-5c0-4-2-6-4-8-2-3-4-4-7-4Zm0-3c4 0 8 1 10 4 3 3 4 7 4 10a14 14 0 0 1-14 15c-5 0-8-1-11-4-2-3-4-7-4-11 0-3 1-7 4-10s6-4 11-4Zm35 4-3 2c-1-2-3-3-5-3l-3 1-1 3 1 3 4 2 5 4 2 5-3 6-6 2a11 11 0 0 1-8-4l2-2 6 3 4-2a4 4 0 0 0 0-6l-4-3c-3-1-4-2-5-4l-2-4c0-2 1-4 3-5 1-2 3-2 5-2 3 0 5 1 8 4Zm20 0-2 2-6-3-3 1-1 3 1 3 4 2 6 4 1 5-2 6-6 2a11 11 0 0 1-9-4l3-2c2 2 3 3 6 3l3-2a4 4 0 0 0 1-6l-5-3-5-4-1-4c0-2 0-4 2-5 1-2 3-2 5-2 3 0 5 1 8 4Zm30 8-2-5-4-3-5-1c-2 0-5 1-7 3l-3 6h21Zm0 7 3 2-4 4a14 14 0 0 1-9 4c-5 0-9-1-11-4-3-3-4-7-4-11l3-9c3-3 7-5 11-5 5 0 9 2 12 5 2 3 3 6 3 10h-25c0 3 1 6 3 8s4 3 7 3a12 12 0 0 0 8-3l3-4Zm9-19h4v5l3-4 4-1 3 1-2 3-2-1-3 2-3 4v19h-4v-28Zm17 0h3v28h-3v-28Zm1-11 3 1v4l-3 1-2-1v-4l2-1Zm33 23-2-5-4-3-4-1c-3 0-5 1-7 3-2 1-3 3-4 6h21Zm0 7 3 2-3 4a14 14 0 0 1-10 4c-5 0-8-1-11-4-2-3-4-7-4-11 0-3 1-6 4-9 2-3 6-5 11-5 4 0 8 2 11 5 2 3 3 6 3 10h-25c0 3 1 6 3 8s5 3 7 3a12 12 0 0 0 8-3l3-4Zm25 7a11 11 0 0 0 10-6 11 11 0 0 0 0-11 11 11 0 0 0-10-6 11 11 0 0 0-9 6l-2 5c0 3 1 6 3 8 3 2 5 4 8 4Zm-14 2v-38h3v15l6-4 6-1c4 0 7 1 10 4 2 3 4 6 4 10s-2 8-4 11c-3 3-7 4-10 4a13 13 0 0 1-12-6v5h-3Zm49-25a11 11 0 0 0-10 6 11 11 0 0 0 0 11 11 11 0 0 0 10 6 11 11 0 0 0 9-6l2-5a11 11 0 0 0-11-12Zm14-3v28h-3v-4l-5 4-7 1c-4 0-7-1-10-4-2-3-4-7-4-11s2-7 4-10c3-3 7-4 11-4a13 13 0 0 1 11 6v-6h3Zm8 0h3v13l1 7c0 2 1 3 3 4l5 2 5-2 3-4v-20h4v14l-1 9-4 4-7 2-7-2-4-4-1-9v-14Z" style="fill:#fff;fill-rule:nonzero" transform="scale(4.16667)"/>
</svg>