<?xml version="1.0" encoding="UTF-8" standalone="no"?>
<svg
   xmlns:dc="http://purl.org/dc/elements/1.1/"
   xmlns:cc="http://creativecommons.org/ns#"
   xmlns:rdf="http://www.w3.org/1999/02/22-rdf-syntax-ns#"
   xmlns:svg="http://www.w3.org/2000/svg"
   xmlns="http://www.w3.org/2000/svg"
   viewBox="0 0 298.56 88.893333"
   height="88.893333"
   width="298.56"
   xml:space="preserve"
   id="svg2"
   version="1.1"><metadata
     id="metadata8"><rdf:RDF><cc:Work
         rdf:about=""><dc:format>image/svg+xml</dc:format><dc:type
           rdf:resource="http://purl.org/dc/dcmitype/StillImage" /></cc:Work></rdf:RDF></metadata><defs
     id="defs6" /><g
     transform="matrix(1.3333333,0,0,-1.3333333,0,88.893333)"
     id="g10"><g
       transform="scale(0.1)"
       id="g12"><path
         id="path14"
         style="fill:#254aa5;fill-opacity:1;fill-rule:evenodd;stroke:none"
         d="m 0,666.719 h 457.203 v -47.52 H 50.4023 L 50.4023,0 H 0 v 666.719 0" /><path
         id="path16"
         style="fill:#cdd3d6;fill-opacity:1;fill-rule:evenodd;stroke:none"
         d="M 45.3594,621.363 H 457.203 V 573.844 H 95.7617 V 0 H 45.3594 v 621.363 0" /><path
         id="path18"
         style="fill:#254aa5;fill-opacity:1;fill-rule:evenodd;stroke:none"
         d="M 90.7227,576 H 457.203 V 527.766 H 141.121 V 0 H 90.7227 v 576 0" /><path
         id="path20"
         style="fill:#cdd3d6;fill-opacity:1;fill-rule:evenodd;stroke:none"
         d="m 136.078,530.641 h 321.125 v -48.239 h -270 V 0 h -51.125 v 530.641 0" /><path
         id="path22"
         style="fill:#254aa5;fill-opacity:1;fill-rule:evenodd;stroke:none"
         d="M 181.441,485.281 H 457.203 V 437.039 H 232.559 V 0 h -51.118 v 485.281 0" /><path
         id="path24"
         style="fill:#cdd3d6;fill-opacity:1;fill-rule:evenodd;stroke:none"
         d="M 226.801,439.922 H 457.203 V 391.68 H 277.922 V 0 h -51.121 v 439.922 0" /><path
         id="path26"
         style="fill:#254aa5;fill-opacity:1;fill-rule:evenodd;stroke:none"
         d="M 272.164,393.844 H 457.203 V 346.328 H 323.281 V 0 h -51.117 v 393.844 0" /><path
         id="path28"
         style="fill:#cdd3d6;fill-opacity:1;fill-rule:evenodd;stroke:none"
         d="M 318.242,348.477 H 457.203 V 300.234 H 368.645 V 0 h -50.403 v 348.477 0" /><path
         id="path30"
         style="fill:#254aa5;fill-opacity:1;fill-rule:evenodd;stroke:none"
         d="m 363.598,303.125 h 93.605 V 254.883 H 414 V 0 h -50.402 v 303.125 0" /><path
         id="path32"
         style="fill:#cdd3d6;fill-opacity:1;fill-rule:evenodd;stroke:none"
         d="m 408.961,257.754 h 48.242 V 0 h -48.242 v 257.754 0" /><path
         id="path34"
         style="fill:#254aa5;fill-opacity:1;fill-rule:evenodd;stroke:none"
         d="M 619.199,455.043 H 516.965 V 287.285 h 50.394 v 63.36 h 50.399 v 31.675 h -50.399 v 41.762 h 51.84 v 30.961 0" /><path
         id="path36"
         style="fill:#254aa5;fill-opacity:1;fill-rule:evenodd;stroke:none"
         d="m 702.719,353.516 c 6.48,20.156 12.242,36.007 18.722,60.488 v 0 c 6.481,-24.481 10.801,-40.332 16.563,-60.488 h -35.285 z m 4.324,101.527 -69.121,-167.758 h 40.32 l 15.84,39.59 h 52.559 l 12.961,-39.59 h 53.996 L 749.52,455.043 h -42.477 v 0" /><path
         id="path38"
         style="fill:#254aa5;fill-opacity:1;fill-rule:evenodd;stroke:none"
         d="m 846,455.043 v -102.25 c 0,-50.391 30.965,-68.398 74.16,-68.398 38.16,0 72.004,18.73 72.004,69.121 V 455.043 H 948.961 V 367.93 c 0,-31.68 -10.078,-48.965 -26.641,-48.965 -21.597,0 -25.918,17.988 -25.918,48.242 v 87.836 H 846 v 0" /><path
         id="path40"
         style="fill:#254aa5;fill-opacity:1;fill-rule:evenodd;stroke:none"
         d="m 1036.8,287.285 h 112.32 v 30.957 h -61.92 v 136.801 h -50.4 v -167.758 0" /><path
         id="path42"
         style="fill:#254aa5;fill-opacity:1;fill-rule:evenodd;stroke:none"
         d="M 1289.51,455.043 H 1187.29 V 287.285 h 112.32 v 30.957 h -61.93 v 41.035 h 50.41 v 30.965 h -50.41 v 33.84 h 51.83 v 30.961 0" /><path
         id="path44"
         style="fill:#254aa5;fill-opacity:1;fill-rule:evenodd;stroke:none"
         d="m 1487.52,455.043 h -40.31 v -96.488 c -12.25,23.047 -48.25,66.968 -72.74,96.488 h -36.72 V 287.285 h 39.61 v 98.637 h 0.73 c 15.84,-28.793 49.66,-68.402 75.58,-98.637 h 33.85 v 167.758 0" /><path
         id="path46"
         style="fill:#254aa5;fill-opacity:1;fill-rule:evenodd;stroke:none"
         d="m 1602.71,287.285 c 47.52,0 71.29,20.156 71.29,51.113 0,23.047 -23.77,38.165 -43.92,39.606 v 0 c 10.8,5.039 33.12,12.957 33.12,38.875 0,24.484 -21.6,38.164 -55.45,38.164 h -74.88 V 287.285 h 69.84 z m -19.43,74.16 h 15.12 c 17.28,0 23.77,-8.652 23.77,-22.324 0,-15.84 -10.8,-25.195 -28.81,-25.195 h -10.08 v 47.519 z m 0,66.957 h 14.4 c 7.93,0 20.15,-4.32 20.15,-18 0,-11.519 -6.46,-21.597 -25.19,-21.597 h -9.36 v 39.597 0" /><path
         id="path48"
         style="fill:#254aa5;fill-opacity:1;fill-rule:evenodd;stroke:none"
         d="m 1761.84,353.516 c 6.48,20.156 12.24,36.007 18.73,60.488 h 0.72 c 5.74,-24.481 10.8,-40.332 16.54,-60.488 h -35.99 z m 4.31,101.527 -68.4,-167.758 h 39.61 l 15.84,39.59 h 52.56 l 12.95,-39.59 h 54 l -64.08,167.758 h -42.48 v 0" /><path
         id="path50"
         style="fill:#254aa5;fill-opacity:1;fill-rule:evenodd;stroke:none"
         d="m 2034,323.281 c -7.93,-2.168 -18,-4.316 -28.8,-4.316 -25.92,0 -51.12,15.84 -51.12,51.836 0,36.719 24.47,51.84 48.24,51.84 5.04,0 20.16,-0.715 28.09,-2.879 l 12.95,29.519 c -12.25,5.762 -32.4,8.641 -43.2,8.641 -56.88,0 -98.64,-33.84 -98.64,-85.676 0,-54.726 45.36,-87.851 101.53,-87.851 15.84,0 30.95,3.613 40.31,7.207 l -9.36,31.679 v 0" /><path
         id="path52"
         style="fill:#254aa5;fill-opacity:1;fill-rule:evenodd;stroke:none"
         d="m 2236.33,454.32 h -50.41 v -59.039 h -52.56 v 59.762 h -50.39 V 287.285 h 50.39 v 77.031 h 52.56 v -77.031 h 50.41 v 167.035 0" /><path
         id="path54"
         style="fill:#254aa5;fill-opacity:1;fill-rule:evenodd;stroke:none"
         d="m 581.762,229.688 c -7.199,7.187 -17.282,12.226 -29.52,12.226 -19.437,0 -35.277,-12.226 -35.277,-28.789 0,-17.285 11.515,-24.492 21.594,-32.402 9.363,-7.207 28.082,-17.285 28.082,-32.403 0,-13.672 -9.36,-20.156 -21.602,-20.156 -10.801,0 -18.715,5.762 -26.637,10.801 l -7.203,-10.078 c 8.641,-8.653 23.039,-12.246 34.563,-12.246 19.437,0 37.437,12.246 37.437,30.957 0,15.84 -9.355,26.64 -26.636,38.886 -15.122,11.524 -22.325,17.989 -22.325,26.641 0,9.355 6.485,16.563 18.723,16.563 7.199,0 15.121,-4.317 20.883,-8.653 l 7.918,8.653 v 0" /><path
         id="path56"
         style="fill:#254aa5;fill-opacity:1;fill-rule:evenodd;stroke:none"
         d="m 719.281,229.688 c -7.918,5.761 -20.16,12.226 -37.441,12.226 -43.195,0 -66.957,-32.383 -66.957,-62.637 0,-33.125 21.597,-62.636 64.801,-62.636 15.839,0 30.238,5.039 38.16,10.8 l -6.481,10.079 c -6.48,-5.04 -17.281,-9.356 -30.242,-9.356 -26.641,0 -48.238,20.879 -48.238,51.836 0,28.086 17.996,49.688 48.238,49.688 12.961,0 25.203,-5.762 30.957,-10.801 l 7.203,10.801 v 0" /><path
         id="path58"
         style="fill:#254aa5;fill-opacity:1;fill-rule:evenodd;stroke:none"
         d="m 846,239.766 h -16.562 v -48.965 h -59.754 v 48.965 h -16.563 v -121.68 h 16.563 v 60.469 h 59.754 V 118.086 H 846 v 121.68 0" /><path
         id="path60"
         style="fill:#254aa5;fill-opacity:1;fill-rule:evenodd;stroke:none"
         d="m 1020.96,239.766 h -15.84 C 987.844,207.363 971.277,174.961 954,141.113 c -15.84,33.848 -30.957,66.25 -46.797,98.653 h -18.004 v -121.68 h 13.684 v 98.633 h 0.715 c 4.324,-15.84 29.523,-67.676 44.644,-98.633 h 6.481 c 16.554,30.957 43.922,84.961 48.957,98.633 h 0.72 v -98.633 h 16.56 v 121.68 0" /><path
         id="path62"
         style="fill:#254aa5;fill-opacity:1;fill-rule:evenodd;stroke:none"
         d="m 1080.72,118.086 v 121.68 h -16.56 v -121.68 h 16.56 v 0" /><path
         id="path64"
         style="fill:#254aa5;fill-opacity:1;fill-rule:evenodd;stroke:none"
         d="m 1183.67,239.766 h -59.75 v -121.68 h 66.96 v 12.227 h -50.39 v 46.093 h 41.76 v 12.227 h -41.76 v 38.887 h 43.18 v 12.246 0" /><path
         id="path66"
         style="fill:#254aa5;fill-opacity:1;fill-rule:evenodd;stroke:none"
         d="m 1240.57,227.52 h 22.3 c 31.7,0 46.82,-17.286 46.82,-44.629 0,-35.293 -16.56,-52.578 -50.41,-52.578 h -18.71 v 97.207 z m -17.29,12.246 v -121.68 h 36 c 43.2,0 69.12,23.75 69.12,64.805 0,28.789 -17.29,56.875 -66.23,56.875 h -38.89 v 0" /><path
         id="path68"
         style="fill:#254aa5;fill-opacity:1;fill-rule:evenodd;stroke:none"
         d="m 1424.88,239.766 h -60.49 v -121.68 h 67.7 v 12.227 h -50.41 v 46.093 h 41.76 v 12.227 h -41.76 v 38.887 h 43.2 v 12.246 0" /><path
         id="path70"
         style="fill:#254aa5;fill-opacity:1;fill-rule:evenodd;stroke:none"
         d="M 1506.95,118.086 V 227.52 h 38.89 v 12.246 H 1450.8 V 227.52 h 38.89 V 118.086 h 17.26 v 0" /><path
         id="path72"
         style="fill:#254aa5;fill-opacity:1;fill-rule:evenodd;stroke:none"
         d="m 1635.12,239.766 h -59.77 v -121.68 h 66.97 v 12.227 h -50.41 v 46.093 h 41.76 v 12.227 h -41.76 v 38.887 h 43.21 v 12.246 0" /><path
         id="path74"
         style="fill:#254aa5;fill-opacity:1;fill-rule:evenodd;stroke:none"
         d="m 1773.36,229.688 c -7.91,5.761 -20.16,12.226 -37.44,12.226 -43.21,0 -66.96,-32.383 -66.96,-62.637 0,-33.125 21.61,-62.636 65.51,-62.636 15.14,0 29.53,5.039 37.44,10.8 l -6.46,10.079 c -7.21,-5.04 -17.29,-9.356 -30.25,-9.356 -26.65,0 -48.25,20.879 -48.25,51.836 0,28.086 18.01,49.688 48.25,49.688 12.96,0 25.91,-5.762 31.68,-10.801 l 6.48,10.801 v 0" /><path
         id="path76"
         style="fill:#254aa5;fill-opacity:1;fill-rule:evenodd;stroke:none"
         d="m 1900.08,239.766 h -16.56 v -48.965 h -59.05 v 48.965 h -17.26 v -121.68 h 17.26 v 60.469 h 59.05 v -60.469 h 16.56 v 121.68 0" /><path
         id="path78"
         style="fill:#254aa5;fill-opacity:1;fill-rule:evenodd;stroke:none"
         d="m 2049.12,239.766 h -12.97 v -96.485 h -0.7 c -7.93,11.524 -53.28,64.805 -79.92,96.485 h -12.25 v -121.68 h 13.67 v 97.187 c 7.93,-10.8 53.28,-65.507 79.2,-97.187 h 12.97 v 121.68 0" /><path
         id="path80"
         style="fill:#254aa5;fill-opacity:1;fill-rule:evenodd;stroke:none"
         d="m 2108.89,118.086 v 121.68 h -16.57 v -121.68 h 16.57 v 0" /><path
         id="path82"
         style="fill:#254aa5;fill-opacity:1;fill-rule:evenodd;stroke:none"
         d="m 2168.63,239.766 h -16.54 v -121.68 h 16.54 v 62.637 h 0.73 l 53.28,-64.082 16.56,6.484 -53.28,61.191 46.79,49.688 -10.8,7.187 -53.28,-55.429 v 54.004 0" /></g></g></svg>